<svg width="256" height="229" viewBox="0 0 256 229" fill="none" xmlns="http://www.w3.org/2000/svg">
<path d="M0.949494 1.25044H71.1477C71.2713 1.25044 71.3331 1.31226 71.3331 1.43591V80.8145C71.3331 80.9382 71.2713 81 71.1477 81H62.5236C62.3999 81 62.3381 80.9382 62.3381 80.8145V9.50359H9.75904V80.8145C9.75904 80.9382 9.69722 81 9.57357 81H0.949494C0.825851 81 0.76403 80.9382 0.76403 80.8145V1.43591C0.76403 1.31226 0.825851 1.25044 0.949494 1.25044ZM89.4514 1.25044H128.955C129.079 1.25044 129.141 1.31226 129.141 1.43591V81.4637C129.141 81.5873 129.079 81.6491 128.955 81.6491H120.98C120.857 81.6491 120.795 81.5873 120.795 81.4637V75.5288C115.355 80.4127 109.358 82.8546 102.805 82.8546H101.877C95.3862 82.8546 89.4205 80.4436 83.9802 75.6215C78.3544 69.9958 75.5416 63.6282 75.5416 56.5187V55.5914C75.5416 49.1002 77.9526 43.1344 82.7747 37.6941C88.4004 32.0684 94.768 29.2555 101.877 29.2555H102.805C109.358 29.2555 115.355 31.6975 120.795 36.5813V9.59633H89.4514C89.3277 9.59633 89.2659 9.5345 89.2659 9.41086V1.43591C89.2659 1.31226 89.3277 1.25044 89.4514 1.25044ZM83.8874 56.0551C83.8874 61.4954 86.0821 66.1938 90.4714 70.1504C94.0571 73.056 98.0136 74.5088 102.341 74.5088C107.781 74.5088 112.48 72.3141 116.436 67.9248C119.342 64.3391 120.795 60.3826 120.795 56.0551C120.795 51.1094 118.909 46.6891 115.138 42.7944C111.367 39.3324 107.07 37.6014 102.248 37.6014C96.8699 37.6014 92.2024 39.7961 88.2458 44.1854C85.3402 47.771 83.8874 51.7276 83.8874 56.0551ZM164.555 0.508586H165.482C171.912 0.508586 177.816 2.91962 183.194 7.74169C188.758 13.3056 191.54 19.5805 191.54 26.5663V27.4936C191.54 33.9849 189.16 39.8888 184.4 45.2054C178.836 50.7694 172.53 53.5513 165.482 53.5513H164.555C158.064 53.5513 152.129 51.1403 146.75 46.3182V80.8145C146.75 80.9382 146.689 81 146.565 81H138.683C138.559 81 138.497 80.9382 138.497 80.8145V1.52864C138.497 1.405 138.559 1.34317 138.683 1.34317H146.565C146.689 1.405 146.75 1.46682 146.75 1.52864V7.83442C152.129 2.95053 158.064 0.508586 164.555 0.508586ZM146.75 27.03C146.75 32.4702 148.914 37.1377 153.242 41.0325C156.827 43.8763 160.753 45.2982 165.019 45.2982C170.397 45.2982 175.034 43.1344 178.928 38.8069C181.834 35.2831 183.287 31.3574 183.287 27.03C183.287 22.0842 181.401 17.7258 177.63 13.9547C173.983 10.5546 169.748 8.85447 164.926 8.85447C159.609 8.85447 155.003 11.0182 151.109 15.3457C148.203 18.8695 146.75 22.7643 146.75 27.03ZM212.158 1.25044H251.662C251.786 1.25044 251.848 1.31226 251.848 1.43591V81.4637C251.848 81.5873 251.786 81.6491 251.662 81.6491H243.687C243.564 81.6491 243.502 81.5873 243.502 81.4637V75.5288C238.061 80.4127 232.065 82.8546 225.512 82.8546H224.584C218.093 82.8546 212.127 80.4436 206.687 75.6215C201.061 69.9958 198.248 63.6282 198.248 56.5187V55.5914C198.248 49.1002 200.66 43.1344 205.482 37.6941C211.107 32.0684 217.475 29.2555 224.584 29.2555H225.512C232.065 29.2555 238.061 31.6975 243.502 36.5813V9.59633H212.158C212.035 9.59633 211.973 9.5345 211.973 9.41086V1.43591C211.973 1.31226 212.035 1.25044 212.158 1.25044ZM206.594 56.0551C206.594 61.4954 208.789 66.1938 213.178 70.1504C216.764 73.056 220.721 74.5088 225.048 74.5088C230.488 74.5088 235.187 72.3141 239.143 67.9248C242.049 64.3391 243.502 60.3826 243.502 56.0551C243.502 51.1094 241.616 46.6891 237.845 42.7944C234.074 39.3324 229.777 37.6014 224.955 37.6014C219.577 37.6014 214.909 39.7961 210.953 44.1854C208.047 47.771 206.594 51.7276 206.594 56.0551ZM32.3342 145.972H40.2164C40.3401 145.972 40.4019 146.034 40.4019 146.158V217.747H63.6776V146.436C63.6776 146.312 63.7395 146.25 63.8631 146.25H71.7453C71.869 146.25 71.9308 146.312 71.9308 146.436V225.815C71.9308 225.938 71.869 226 71.7453 226H0.805316C0.681673 226 0.619852 225.938 0.619852 225.815V146.436C0.619852 146.312 0.681673 146.25 0.805316 146.25H8.68754C8.81118 146.25 8.873 146.312 8.873 146.436V217.747H32.1487V146.158C32.1487 146.034 32.2106 145.972 32.3342 145.972ZM139.669 144.118H140.411C151.415 144.118 161.152 148.507 169.622 157.286C177.102 165.879 180.842 175.43 180.842 185.94V187.053C180.842 198.18 176.7 208.165 168.416 217.005C160.07 224.918 150.735 228.875 140.411 228.875H139.669C128.789 228.875 119.176 224.609 110.83 216.078C106.131 210.885 102.917 205.506 101.186 199.942C100.011 195.429 99.4237 192.338 99.4237 190.669H93.2106V226.093C93.2106 226.216 93.1488 226.278 93.0252 226.278H85.1429C85.0193 226.278 84.9575 226.216 84.9575 226.093V146.714C84.9575 146.59 85.0193 146.529 85.1429 146.529H93.0252C93.1488 146.529 93.2106 146.59 93.2106 146.714V182.323H99.4237C100.166 176.203 101.464 171.381 103.318 167.857C104.555 165.322 106.131 162.726 108.048 160.068C112.252 154.936 116.579 151.258 121.03 149.032C126.965 145.756 133.178 144.118 139.669 144.118ZM107.491 186.589C107.491 196.728 111.448 205.506 119.361 212.925C125.667 218.056 132.56 220.622 140.04 220.622C150.364 220.622 159.05 216.047 166.098 206.897C170.426 200.591 172.589 193.791 172.589 186.496C172.589 176.172 168.602 167.362 160.627 160.068C154.445 154.936 147.583 152.371 140.04 152.371C130.211 152.371 121.865 156.482 115.003 164.704C109.995 171.195 107.491 178.49 107.491 186.589ZM186.182 146.25H255.546C255.67 146.25 255.731 146.312 255.731 146.436V225.815C255.731 225.938 255.67 226 255.546 226H247.664C247.54 226 247.478 225.938 247.478 225.815V154.504H225.037V225.815C225.037 225.938 224.975 226 224.852 226H216.969C216.846 226 216.784 225.938 216.784 225.815V154.504H194.25V225.815C194.25 225.938 194.188 226 194.065 226H186.182C186.059 226 185.997 225.938 185.997 225.815V146.436C185.997 146.312 186.059 146.25 186.182 146.25Z" fill="white"/>
</svg>
