<svg width="74" height="74" viewBox="0 0 74 74" fill="none" xmlns="http://www.w3.org/2000/svg">
<path d="M36.5516 0.464844L36.5587 36.9805L50.5394 3.24716L36.5719 36.9861L62.3974 11.1706L36.582 36.9961L70.3209 23.0287L36.5876 37.0094L73.1032 37.0164L36.5876 37.0235L70.3209 51.0042L36.582 37.0368L62.3974 62.8623L36.5719 37.0468L50.5394 70.7857L36.5587 37.0524L36.5516 73.568L36.5445 37.0524L22.5638 70.7857L36.5313 37.0468L10.7057 62.8623L36.5212 37.0368L2.78231 51.0042L36.5156 37.0235L0 37.0164L36.5156 37.0094L2.78231 23.0287L36.5212 36.9961L10.7057 11.1706L36.5313 36.9861L22.5638 3.24716L36.5445 36.9805L36.5516 0.464844Z" stroke="#DFA532" stroke-width="3.65046"/>
</svg>
