<svg width="265" height="107" viewBox="0 0 265 107" fill="none" xmlns="http://www.w3.org/2000/svg">
<g filter="url(#filter0_d_445_791)">
<g clip-path="url(#clip0_445_791)">
<rect x="25" y="19" width="215" height="56" rx="28" fill="white"/>
<path d="M70.5729 41.5648V56.4453H68.192V41.5648H70.5729ZM60.8112 41.5648V50.88C60.8112 52.0109 61.1287 52.8938 61.7636 53.5287C62.4183 54.1636 63.2517 54.4811 64.2635 54.4811C65.3548 54.4811 66.2774 54.1339 67.0313 53.4394C67.8051 52.745 68.192 51.9216 68.192 50.9693H69.442C69.442 52.5565 68.8864 53.9255 67.7753 55.0763C66.6643 56.2072 65.2754 56.7727 63.6088 56.7727C62.1406 56.7727 60.9104 56.2767 59.9184 55.2846C58.9264 54.2926 58.4304 52.993 58.4304 51.3859V41.5648H60.8112ZM79.3059 50.0169C75.6155 49.382 73.7703 47.9237 73.7703 45.642C73.7703 44.3524 74.2663 43.2909 75.2584 42.4576C76.2504 41.6045 77.4905 41.1779 78.9785 41.1779C80.3475 41.1779 81.5776 41.5549 82.6689 42.3088C83.78 43.0628 84.5736 44.0746 85.0498 45.3444L82.7879 46.148C82.4506 45.275 81.9447 44.5905 81.2701 44.0945C80.6154 43.5985 79.8713 43.3504 79.038 43.3504C78.2047 43.3504 77.5103 43.5588 76.9548 43.9754C76.4191 44.3921 76.1512 44.9079 76.1512 45.523C76.1512 46.0984 76.4191 46.5646 76.9548 46.9218C77.5103 47.2789 78.3932 47.5666 79.6035 47.7848C83.4923 48.4594 85.4367 49.9872 85.4367 52.368C85.4367 53.618 84.891 54.6696 83.7998 55.5227C82.7284 56.356 81.4189 56.7727 79.8713 56.7727C78.423 56.7727 77.1036 56.4156 75.9131 55.7013C74.7425 54.987 73.9092 54.0247 73.4132 52.8145L75.5858 51.8919C75.9627 52.745 76.5183 53.4196 77.2524 53.9156C78.0063 54.4116 78.8595 54.6596 79.8118 54.6596C80.7443 54.6596 81.5181 54.4513 82.1332 54.0347C82.7482 53.5982 83.0558 53.0526 83.0558 52.3978C83.0558 51.247 81.8058 50.4534 79.3059 50.0169ZM100.749 47.8741C100.63 46.4853 100.065 45.3643 99.0528 44.5111C98.0409 43.658 96.8207 43.2314 95.3922 43.2314C94.0232 43.2314 92.8427 43.658 91.8506 44.5111C90.8784 45.3444 90.3031 46.4654 90.1245 47.8741H100.749ZM90.1245 50.0467C90.3031 51.4554 90.8983 52.5863 91.9102 53.4394C92.922 54.2926 94.1224 54.7192 95.5113 54.7192C96.5827 54.7192 97.5548 54.4712 98.4278 53.9751C99.3008 53.4593 99.9556 52.7549 100.392 51.8621L102.594 52.7252C101.94 54.0347 100.977 55.0763 99.7076 55.8501C98.4576 56.604 97.0687 56.981 95.541 56.981C93.3189 56.981 91.4439 56.2271 89.9162 54.7192C88.4083 53.1914 87.6543 51.2768 87.6543 48.9753C87.6543 46.6738 88.3984 44.7691 89.8864 43.2612C91.3745 41.7334 93.1998 40.9696 95.3624 40.9696C97.5449 40.9696 99.3901 41.7136 100.898 43.2016C102.406 44.6698 103.16 46.525 103.16 48.767C103.16 49.1241 103.11 49.5507 103.011 50.0467H90.1245ZM105.978 56.4453V41.5648H108.359V56.4453H105.978ZM113.061 43.7076C111.752 43.7076 110.631 44.0945 109.698 44.8683C108.786 45.642 108.329 46.5646 108.329 47.636H107.05C107.05 45.9893 107.615 44.531 108.746 43.2612C109.877 41.9715 111.236 41.3267 112.823 41.3267H113.657V43.7076H113.061ZM129.411 50.0169C125.721 49.382 123.876 47.9237 123.876 45.642C123.876 44.3524 124.372 43.2909 125.364 42.4576C126.356 41.6045 127.596 41.1779 129.084 41.1779C130.453 41.1779 131.683 41.5549 132.774 42.3088C133.886 43.0628 134.679 44.0746 135.155 45.3444L132.893 46.148C132.556 45.275 132.05 44.5905 131.376 44.0945C130.721 43.5985 129.977 43.3504 129.144 43.3504C128.31 43.3504 127.616 43.5588 127.06 43.9754C126.525 44.3921 126.257 44.9079 126.257 45.523C126.257 46.0984 126.525 46.5646 127.06 46.9218C127.616 47.2789 128.499 47.5666 129.709 47.7848C133.598 48.4594 135.542 49.9872 135.542 52.368C135.542 53.618 134.997 54.6696 133.905 55.5227C132.834 56.356 131.524 56.7727 129.977 56.7727C128.529 56.7727 127.209 56.4156 126.019 55.7013C124.848 54.987 124.015 54.0247 123.519 52.8145L125.691 51.8919C126.068 52.745 126.624 53.4196 127.358 53.9156C128.112 54.4116 128.965 54.6596 129.917 54.6596C130.85 54.6596 131.624 54.4513 132.239 54.0347C132.854 53.5982 133.161 53.0526 133.161 52.3978C133.161 51.247 131.911 50.4534 129.411 50.0169ZM145.026 54.1835H146.931V56.4453H144.699C143.251 56.4453 142.11 56.0783 141.277 55.3442C140.443 54.61 140.027 53.618 140.027 52.368V43.7671H137.289V41.5648H140.027V37.2197L142.407 36.7435V41.5648H146.931V43.7671H142.407V51.8323C142.407 53.3998 143.28 54.1835 145.026 54.1835ZM152.56 44.898C151.469 45.9496 150.923 47.3087 150.923 48.9753C150.923 50.6419 151.469 52.0109 152.56 53.0823C153.671 54.1339 155.02 54.6596 156.608 54.6596C158.195 54.6596 159.534 54.1339 160.625 53.0823C161.737 52.0109 162.292 50.6419 162.292 48.9753C162.292 47.3087 161.737 45.9496 160.625 44.898C159.534 43.8266 158.195 43.2909 156.608 43.2909C155.02 43.2909 153.671 43.8266 152.56 44.898ZM150.864 54.7192C149.316 53.2113 148.542 51.2966 148.542 48.9753C148.542 46.6539 149.316 44.7393 150.864 43.2314C152.431 41.7235 154.346 40.9696 156.608 40.9696C158.87 40.9696 160.774 41.7235 162.322 43.2314C163.889 44.7393 164.673 46.6539 164.673 48.9753C164.673 51.2966 163.889 53.2113 162.322 54.7192C160.774 56.2271 158.87 56.981 156.608 56.981C154.346 56.981 152.431 56.2271 150.864 54.7192ZM167.535 56.4453V41.5648H169.916V56.4453H167.535ZM174.618 43.7076C173.309 43.7076 172.188 44.0945 171.255 44.8683C170.342 45.642 169.886 46.5646 169.886 47.636H168.606C168.606 45.9893 169.172 44.531 170.303 43.2612C171.434 41.9715 172.793 41.3267 174.38 41.3267H175.213V43.7076H174.618ZM177.649 38.678C177.332 38.3605 177.173 37.9736 177.173 37.5173C177.173 37.0609 177.332 36.684 177.649 36.3864C177.966 36.0689 178.343 35.9102 178.78 35.9102C179.236 35.9102 179.613 36.0689 179.911 36.3864C180.228 36.684 180.387 37.0609 180.387 37.5173C180.387 37.9736 180.228 38.3605 179.911 38.678C179.613 38.9756 179.236 39.1244 178.78 39.1244C178.343 39.1244 177.966 38.9756 177.649 38.678ZM177.589 56.4453V41.5648H179.97V56.4453H177.589ZM195.903 47.8741C195.784 46.4853 195.219 45.3643 194.207 44.5111C193.195 43.658 191.975 43.2314 190.546 43.2314C189.177 43.2314 187.997 43.658 187.005 44.5111C186.032 45.3444 185.457 46.4654 185.279 47.8741H195.903ZM185.279 50.0467C185.457 51.4554 186.052 52.5863 187.064 53.4394C188.076 54.2926 189.276 54.7192 190.665 54.7192C191.737 54.7192 192.709 54.4712 193.582 53.9751C194.455 53.4593 195.11 52.7549 195.546 51.8621L197.748 52.7252C197.094 54.0347 196.131 55.0763 194.862 55.8501C193.612 56.604 192.223 56.981 190.695 56.981C188.473 56.981 186.598 56.2271 185.07 54.7192C183.562 53.1914 182.808 51.2768 182.808 48.9753C182.808 46.6738 183.552 44.7691 185.04 43.2612C186.528 41.7334 188.354 40.9696 190.516 40.9696C192.699 40.9696 194.544 41.7136 196.052 43.2016C197.56 44.6698 198.314 46.525 198.314 48.767C198.314 49.1241 198.264 49.5507 198.165 50.0467H185.279ZM206.43 50.0169C202.739 49.382 200.894 47.9237 200.894 45.642C200.894 44.3524 201.39 43.2909 202.382 42.4576C203.374 41.6045 204.614 41.1779 206.102 41.1779C207.471 41.1779 208.702 41.5549 209.793 42.3088C210.904 43.0628 211.698 44.0746 212.174 45.3444L209.912 46.148C209.575 45.275 209.069 44.5905 208.394 44.0945C207.739 43.5985 206.995 43.3504 206.162 43.3504C205.329 43.3504 204.634 43.5588 204.079 43.9754C203.543 44.3921 203.275 44.9079 203.275 45.523C203.275 46.0984 203.543 46.5646 204.079 46.9218C204.634 47.2789 205.517 47.5666 206.727 47.7848C210.616 48.4594 212.561 49.9872 212.561 52.368C212.561 53.618 212.015 54.6696 210.924 55.5227C209.852 56.356 208.543 56.7727 206.995 56.7727C205.547 56.7727 204.228 56.4156 203.037 55.7013C201.866 54.987 201.033 54.0247 200.537 52.8145L202.71 51.8919C203.087 52.745 203.642 53.4196 204.376 53.9156C205.13 54.4116 205.983 54.6596 206.936 54.6596C207.868 54.6596 208.642 54.4513 209.257 54.0347C209.872 53.5982 210.18 53.0526 210.18 52.3978C210.18 51.247 208.93 50.4534 206.43 50.0169Z" fill="black"/>
</g>
</g>
<defs>
<filter id="filter0_d_445_791" x="0.199112" y="0.812682" width="264.602" height="105.602" filterUnits="userSpaceOnUse" color-interpolation-filters="sRGB">
<feFlood flood-opacity="0" result="BackgroundImageFix"/>
<feColorMatrix in="SourceAlpha" type="matrix" values="0 0 0 0 0 0 0 0 0 0 0 0 0 0 0 0 0 0 127 0" result="hardAlpha"/>
<feOffset dy="6.61357"/>
<feGaussianBlur stdDeviation="12.4004"/>
<feComposite in2="hardAlpha" operator="out"/>
<feColorMatrix type="matrix" values="0 0 0 0 0.466667 0 0 0 0 0.466667 0 0 0 0 0.466667 0 0 0 0.2 0"/>
<feBlend mode="normal" in2="BackgroundImageFix" result="effect1_dropShadow_445_791"/>
<feBlend mode="normal" in="SourceGraphic" in2="effect1_dropShadow_445_791" result="shape"/>
</filter>
<clipPath id="clip0_445_791">
<rect x="25" y="19" width="215" height="56" rx="28" fill="white"/>
</clipPath>
</defs>
</svg>
