<svg width="221" height="193" viewBox="0 0 221 193" fill="none" xmlns="http://www.w3.org/2000/svg">
<path d="M59.5 0V0C63.7422 18.7802 85.2935 27.7071 101.573 17.4271V17.4271V17.4271C91.2929 33.7064 100.22 55.2578 119 59.5V59.5V59.5C100.22 63.7422 91.2929 85.2935 101.573 101.573V101.573V101.573C85.2935 91.2929 63.7422 100.22 59.5 119V119V119C55.2578 100.22 33.7064 91.2929 17.4271 101.573V101.573V101.573C27.7071 85.2935 18.7802 63.7422 0 59.5V59.5V59.5C18.7802 55.2578 27.7071 33.7065 17.4271 17.4271V17.4271V17.4271C33.7065 27.7071 55.2578 18.7802 59.5 0V0Z" fill="#C8151A"/>
<path d="M39.3818 34.864H82.6329C82.7091 34.864 82.7472 34.9021 82.7472 34.9783V83.8857C82.7472 83.9619 82.7091 84 82.6329 84H77.3194C77.2432 84 77.2051 83.9619 77.2051 83.8857V39.949H44.8096V83.8857C44.8096 83.9619 44.7715 84 44.6953 84H39.3818C39.3056 84 39.2675 83.9619 39.2675 83.8857V34.9783C39.2675 34.9021 39.3056 34.864 39.3818 34.864ZM93.9103 34.864H118.25C118.326 34.864 118.364 34.9021 118.364 34.9783V84.2857C118.364 84.3619 118.326 84.3999 118.25 84.3999H113.336C113.26 84.3999 113.222 84.3619 113.222 84.2857V80.629C109.87 83.6381 106.175 85.1427 102.138 85.1427H101.566C97.567 85.1427 93.8913 83.6572 90.5394 80.6862C87.0732 77.22 85.3401 73.2967 85.3401 68.9164V68.345C85.3401 64.3456 86.8256 60.6699 89.7966 57.318C93.2628 53.8518 97.1861 52.1187 101.566 52.1187H102.138C106.175 52.1187 109.87 53.6233 113.222 56.6324V40.0061H93.9103C93.8342 40.0061 93.7961 39.968 93.7961 39.8919V34.9783C93.7961 34.9021 93.8342 34.864 93.9103 34.864ZM90.4823 68.6307C90.4823 71.9826 91.8344 74.8775 94.5388 77.3152C96.748 79.1054 99.1858 80.0006 101.852 80.0006C105.204 80.0006 108.099 78.6484 110.537 75.944C112.327 73.7348 113.222 71.297 113.222 68.6307C113.222 65.5835 112.06 62.8601 109.737 60.4604C107.413 58.3274 104.766 57.2609 101.795 57.2609C98.4811 57.2609 95.6053 58.6131 93.1676 61.3174C91.3774 63.5267 90.4823 65.9644 90.4823 68.6307ZM140.184 34.4069H140.755C144.717 34.4069 148.354 35.8924 151.668 38.8634C155.096 42.2915 156.81 46.1577 156.81 50.4618V51.0332C156.81 55.0326 155.344 58.6702 152.411 61.9459C148.983 65.374 145.097 67.0881 140.755 67.0881H140.184C136.184 67.0881 132.528 65.6026 129.214 62.6315V83.8857C129.214 83.9619 129.176 84 129.1 84H124.243C124.167 84 124.129 83.9619 124.129 83.8857V35.0354C124.129 34.9592 124.167 34.9211 124.243 34.9211H129.1C129.176 34.9592 129.214 34.9973 129.214 35.0354V38.9206C132.528 35.9115 136.184 34.4069 140.184 34.4069ZM129.214 50.7475C129.214 54.0994 130.547 56.9752 133.213 59.3749C135.423 61.127 137.841 62.0031 140.469 62.0031C143.783 62.0031 146.64 60.6699 149.04 58.0036C150.83 55.8325 151.725 53.4138 151.725 50.7475C151.725 47.7003 150.563 45.015 148.24 42.6915C145.993 40.5965 143.383 39.549 140.412 39.549C137.137 39.549 134.299 40.8822 131.899 43.5485C130.109 45.7196 129.214 48.1193 129.214 50.7475ZM169.514 34.864H193.853C193.929 34.864 193.967 34.9021 193.967 34.9783V84.2857C193.967 84.3619 193.929 84.3999 193.853 84.3999H188.94C188.863 84.3999 188.825 84.3619 188.825 84.2857V80.629C185.473 83.6381 181.779 85.1427 177.741 85.1427H177.17C173.17 85.1427 169.495 83.6572 166.143 80.6862C162.676 77.22 160.943 73.2967 160.943 68.9164V68.345C160.943 64.3456 162.429 60.6699 165.4 57.318C168.866 53.8518 172.789 52.1187 177.17 52.1187H177.741C181.779 52.1187 185.473 53.6233 188.825 56.6324V40.0061H169.514C169.437 40.0061 169.399 39.968 169.399 39.8919V34.9783C169.399 34.9021 169.437 34.864 169.514 34.864ZM166.086 68.6307C166.086 71.9826 167.438 74.8775 170.142 77.3152C172.351 79.1054 174.789 80.0006 177.455 80.0006C180.807 80.0006 183.702 78.6484 186.14 75.944C187.93 73.7348 188.825 71.297 188.825 68.6307C188.825 65.5835 187.663 62.8601 185.34 60.4604C183.017 58.3274 180.369 57.2609 177.398 57.2609C174.084 57.2609 171.209 58.6131 168.771 61.3174C166.981 63.5267 166.086 65.9644 166.086 68.6307ZM59.2902 123.693H64.1466C64.2228 123.693 64.2609 123.731 64.2609 123.807V167.915H78.6018V123.978C78.6018 123.902 78.6399 123.864 78.716 123.864H83.5725C83.6487 123.864 83.6868 123.902 83.6868 123.978V172.886C83.6868 172.962 83.6487 173 83.5725 173H39.8643C39.7881 173 39.75 172.962 39.75 172.886V123.978C39.75 123.902 39.7881 123.864 39.8643 123.864H44.7208C44.797 123.864 44.835 123.902 44.835 123.978V167.915H59.1759V123.807C59.1759 123.731 59.214 123.693 59.2902 123.693ZM124.28 122.55H124.737C131.517 122.55 137.516 125.254 142.734 130.663C147.343 135.958 149.648 141.842 149.648 148.318V149.003C149.648 155.86 147.096 162.011 141.992 167.458C136.849 172.333 131.098 174.771 124.737 174.771H124.28C117.576 174.771 111.653 172.143 106.511 166.887C103.616 163.687 101.635 160.373 100.569 156.945C99.8451 154.165 99.4832 152.26 99.4832 151.232H95.6552V173.057C95.6552 173.133 95.6171 173.171 95.5409 173.171H90.6845C90.6083 173.171 90.5702 173.133 90.5702 173.057V124.15C90.5702 124.073 90.6083 124.035 90.6845 124.035H95.5409C95.6171 124.035 95.6552 124.073 95.6552 124.15V146.089H99.4832C99.9403 142.319 100.74 139.348 101.883 137.176C102.645 135.615 103.616 134.015 104.797 132.377C107.387 129.216 110.053 126.949 112.796 125.578C116.452 123.559 120.28 122.55 124.28 122.55ZM104.454 148.718C104.454 154.964 106.892 160.373 111.767 164.944C115.652 168.105 119.899 169.686 124.508 169.686C130.869 169.686 136.221 166.868 140.563 161.23C143.23 157.345 144.563 153.155 144.563 148.661C144.563 142.3 142.106 136.872 137.192 132.377C133.383 129.216 129.155 127.635 124.508 127.635C118.452 127.635 113.31 130.168 109.082 135.234C105.997 139.233 104.454 143.728 104.454 148.718ZM152.938 123.864H195.675C195.751 123.864 195.789 123.902 195.789 123.978V172.886C195.789 172.962 195.751 173 195.675 173H190.818C190.742 173 190.704 172.962 190.704 172.886V128.949H176.877V172.886C176.877 172.962 176.839 173 176.763 173H171.907C171.83 173 171.792 172.962 171.792 172.886V128.949H157.909V172.886C157.909 172.962 157.87 173 157.794 173H152.938C152.862 173 152.824 172.962 152.824 172.886V123.978C152.824 123.902 152.862 123.864 152.938 123.864Z" fill="#141414"/>
</svg>
