<svg width="1440" height="178" viewBox="0 0 1440 178" fill="none" xmlns="http://www.w3.org/2000/svg">
<path d="M0 0H1440V177.5H0V0Z" fill="#1A1A1A"/>
<g clip-path="url(#clip0_510_1121)">
<path fill-rule="evenodd" clip-rule="evenodd" d="M1110 117.5C1110 126.06 1103.06 133 1094.5 133C1085.94 133 1079 126.06 1079 117.5C1079 108.94 1085.94 102 1094.5 102C1103.06 102 1110 108.94 1110 117.5ZM1089.38 116.08C1087.83 116.758 1086.23 117.455 1084.77 118.258C1084.01 118.816 1085.02 119.21 1085.97 119.581C1086.12 119.639 1086.27 119.698 1086.41 119.756C1086.53 119.792 1086.65 119.83 1086.77 119.868C1087.83 120.204 1089 120.58 1090.03 120.015C1091.71 119.047 1093.3 117.929 1094.89 116.811C1095.41 116.444 1095.93 116.078 1096.46 115.717C1096.48 115.702 1096.51 115.684 1096.54 115.664C1096.99 115.375 1097.99 114.725 1097.62 115.621C1096.74 116.58 1095.8 117.429 1094.86 118.283C1094.22 118.859 1093.58 119.437 1092.96 120.051C1092.41 120.493 1091.85 121.381 1092.46 121.999C1093.86 122.98 1095.28 123.937 1096.7 124.894C1097.17 125.205 1097.63 125.517 1098.09 125.829C1098.87 126.454 1100.1 125.948 1100.27 124.971C1100.35 124.522 1100.42 124.073 1100.5 123.623C1100.93 121.14 1101.35 118.656 1101.73 116.165C1101.78 115.775 1101.83 115.384 1101.89 114.993C1102.03 114.045 1102.17 113.097 1102.22 112.144C1102.1 111.194 1100.95 111.403 1100.31 111.616C1097.01 112.871 1093.75 114.219 1090.5 115.59C1090.13 115.753 1089.76 115.916 1089.38 116.08Z" fill="white"/>
</g>
<g clip-path="url(#clip1_510_1121)">
<mask id="mask0_510_1121" style="mask-type:luminance" maskUnits="userSpaceOnUse" x="1142" y="102" width="30" height="31">
<path d="M1171.85 102H1142.15V133H1171.85V102Z" fill="white"/>
</mask>
<g mask="url(#mask0_510_1121)">
<path fill-rule="evenodd" clip-rule="evenodd" d="M1144.24 104.179C1142.15 106.358 1142.15 109.866 1142.15 116.88V118.12C1142.15 125.134 1142.15 128.642 1144.24 130.821C1146.32 133 1149.68 133 1156.41 133H1157.59C1164.31 133 1167.68 133 1169.76 130.821C1171.85 128.642 1171.85 125.134 1171.85 118.12V116.88C1171.85 109.866 1171.85 106.358 1169.76 104.179C1167.68 102 1164.31 102 1157.59 102H1156.41C1149.68 102 1146.32 102 1144.24 104.179ZM1147.16 111.429C1147.32 119.489 1151.18 124.333 1157.95 124.333H1158.34V119.722C1160.82 119.98 1162.71 121.879 1163.46 124.333H1166.98C1166.01 120.665 1163.47 118.637 1161.89 117.862C1163.47 116.906 1165.7 114.581 1166.23 111.429H1163.04C1162.35 113.987 1160.29 116.312 1158.34 116.531V111.429H1155.14V120.368C1153.16 119.851 1150.66 117.345 1150.55 111.429H1147.16Z" fill="white"/>
</g>
</g>
<path d="M1222.03 105.072C1223.62 105.072 1225.21 105.045 1226.81 105.079C1228.83 105.12 1230.86 105.195 1232.88 105.284C1233.71 105.325 1234.57 105.346 1235.39 105.503C1237.37 105.872 1238.54 107.055 1239.09 108.921C1239.37 109.912 1239.48 110.931 1239.57 111.949C1239.82 114.691 1239.77 117.432 1239.7 120.173C1239.66 121.793 1239.59 123.427 1239.16 125.013C1238.99 125.662 1238.78 126.312 1238.4 126.879C1237.69 127.911 1236.68 128.499 1235.44 128.718C1234.38 128.909 1233.31 128.93 1232.23 128.978C1230.24 129.067 1228.25 129.108 1226.26 129.155C1223.91 129.217 1221.55 129.203 1219.2 129.183C1217.3 129.162 1215.38 129.121 1213.48 129.046C1211.87 128.984 1210.25 128.957 1208.66 128.656C1207.78 128.492 1207 128.137 1206.33 127.549C1205.69 126.988 1205.37 126.264 1205.13 125.498C1204.62 123.858 1204.58 122.162 1204.48 120.467C1204.36 118.484 1204.39 116.502 1204.44 114.526C1204.49 112.858 1204.56 111.184 1204.92 109.543C1205.13 108.572 1205.42 107.608 1206.14 106.863C1207.04 105.947 1208.18 105.51 1209.46 105.421C1211 105.318 1212.55 105.25 1214.09 105.189C1216.73 105.079 1219.38 105.045 1222.03 105.072ZM1227.87 116.775C1227.84 116.693 1227.77 116.68 1227.71 116.652C1226.06 115.805 1224.4 114.957 1222.74 114.109C1221.42 113.44 1220.11 112.763 1218.79 112.086C1218.43 111.901 1218.42 111.908 1218.42 112.318C1218.42 115.265 1218.42 118.211 1218.42 121.164C1218.42 121.219 1218.42 121.28 1218.42 121.335C1218.41 121.513 1218.48 121.567 1218.65 121.479C1218.86 121.369 1219.06 121.26 1219.27 121.15C1222.04 119.756 1224.82 118.355 1227.59 116.96C1227.69 116.905 1227.82 116.885 1227.87 116.775Z" fill="white"/>
<line x1="552" y1="134.5" x2="712" y2="134.5" stroke="white"/>
<path d="M563.407 120.449H560.794V122.282H563.524C563.819 122.282 564.066 122.204 564.265 122.048C564.464 121.883 564.564 121.68 564.564 121.437C564.564 121.151 564.451 120.917 564.226 120.735C564.009 120.544 563.736 120.449 563.407 120.449ZM563.537 123.153H560.794V125.051H563.537C563.866 125.051 564.139 124.964 564.356 124.791C564.581 124.609 564.694 124.388 564.694 124.128C564.694 123.842 564.581 123.608 564.356 123.426C564.139 123.244 563.866 123.153 563.537 123.153ZM563.667 126H559.754V119.5H563.537C564.126 119.5 564.616 119.673 565.006 120.02C565.405 120.358 565.604 120.787 565.604 121.307C565.604 121.593 565.526 121.857 565.37 122.1C565.223 122.334 565.015 122.516 564.746 122.646C565.049 122.793 565.288 123.006 565.461 123.283C565.643 123.56 565.734 123.872 565.734 124.219C565.734 124.722 565.535 125.146 565.136 125.493C564.746 125.831 564.256 126 563.667 126ZM570.917 122.997L569.058 123.218C568.183 123.331 567.745 123.664 567.745 124.219C567.745 124.514 567.866 124.752 568.109 124.934C568.352 125.107 568.677 125.194 569.084 125.194C569.639 125.194 570.081 125.029 570.41 124.7C570.748 124.371 570.917 123.937 570.917 123.4H571.372C571.372 124.189 571.129 124.843 570.644 125.363C570.159 125.883 569.552 126.143 568.824 126.143C568.209 126.143 567.697 125.97 567.29 125.623C566.891 125.268 566.692 124.813 566.692 124.258C566.701 123.729 566.891 123.292 567.264 122.945C567.645 122.598 568.17 122.386 568.837 122.308L570.917 122.074V121.814C570.917 121.415 570.761 121.069 570.449 120.774C570.146 120.479 569.773 120.332 569.331 120.332C568.932 120.332 568.577 120.44 568.265 120.657C567.962 120.874 567.771 121.155 567.693 121.502L566.705 121.19C566.878 120.644 567.199 120.202 567.667 119.864C568.144 119.526 568.681 119.357 569.279 119.357C570.007 119.357 570.635 119.591 571.164 120.059C571.693 120.518 571.957 121.069 571.957 121.71V126H570.917V122.997ZM582.864 126H573.452V119.5H574.492V125.012H577.638V119.5H578.678V125.012H581.824V119.5H582.864V126ZM593.334 122.256C593.282 121.649 593.035 121.16 592.593 120.787C592.151 120.414 591.618 120.228 590.994 120.228C590.396 120.228 589.88 120.414 589.447 120.787C589.022 121.151 588.771 121.641 588.693 122.256H593.334ZM588.693 123.205C588.771 123.82 589.031 124.314 589.473 124.687C589.915 125.06 590.439 125.246 591.046 125.246C591.514 125.246 591.939 125.138 592.32 124.921C592.701 124.696 592.987 124.388 593.178 123.998L594.14 124.375C593.854 124.947 593.434 125.402 592.879 125.74C592.333 126.069 591.726 126.234 591.059 126.234C590.088 126.234 589.269 125.905 588.602 125.246C587.943 124.579 587.614 123.742 587.614 122.737C587.614 121.732 587.939 120.9 588.589 120.241C589.239 119.574 590.036 119.24 590.981 119.24C591.934 119.24 592.74 119.565 593.399 120.215C594.058 120.856 594.387 121.667 594.387 122.646C594.387 122.802 594.365 122.988 594.322 123.205H588.693ZM599.388 122.074V123.01H595.241V122.074H599.388ZM608.592 126V121.931C608.592 121.437 608.457 121.051 608.189 120.774C607.929 120.497 607.591 120.358 607.175 120.358C606.741 120.358 606.369 120.514 606.057 120.826C605.745 121.129 605.589 121.498 605.589 121.931H605.03C605.03 121.22 605.264 120.614 605.732 120.111C606.2 119.608 606.776 119.357 607.461 119.357C608.076 119.357 608.592 119.574 609.008 120.007C609.424 120.44 609.632 121.008 609.632 121.71V126H608.592ZM600.519 126V119.5H601.559V126H600.519ZM604.549 126V121.931C604.549 121.437 604.414 121.051 604.146 120.774C603.886 120.497 603.552 120.358 603.145 120.358C602.703 120.358 602.326 120.514 602.014 120.826C601.71 121.129 601.559 121.498 601.559 121.931H600.987C600.987 121.22 601.221 120.614 601.689 120.111C602.157 119.608 602.737 119.357 603.431 119.357C604.046 119.357 604.557 119.574 604.965 120.007C605.381 120.44 605.589 121.008 605.589 121.71V126H604.549ZM615.084 122.997L613.225 123.218C612.35 123.322 611.912 123.656 611.912 124.219C611.912 124.514 612.033 124.752 612.276 124.934C612.519 125.107 612.844 125.194 613.251 125.194C613.806 125.194 614.248 125.029 614.577 124.7C614.915 124.371 615.084 123.937 615.084 123.4H615.539C615.539 124.189 615.296 124.843 614.811 125.363C614.326 125.883 613.719 126.143 612.991 126.143C612.376 126.143 611.864 125.97 611.457 125.623C611.058 125.268 610.859 124.813 610.859 124.258C610.868 123.721 611.058 123.283 611.431 122.945C611.812 122.598 612.337 122.386 613.004 122.308L615.084 122.074V121.814C615.084 121.415 614.928 121.069 614.616 120.774C614.304 120.479 613.923 120.332 613.472 120.332C613.065 120.332 612.705 120.44 612.393 120.657C612.081 120.874 611.877 121.155 611.782 121.502L610.82 121.19C610.985 120.644 611.305 120.202 611.782 119.864C612.259 119.526 612.8 119.357 613.407 119.357C614.144 119.357 614.781 119.591 615.318 120.059C615.855 120.518 616.124 121.069 616.124 121.71V126H615.084V122.997ZM617.619 118.239C617.481 118.1 617.411 117.931 617.411 117.732C617.411 117.533 617.481 117.368 617.619 117.238C617.758 117.099 617.923 117.03 618.113 117.03C618.313 117.03 618.477 117.099 618.607 117.238C618.746 117.368 618.815 117.533 618.815 117.732C618.815 117.931 618.746 118.1 618.607 118.239C618.477 118.369 618.313 118.434 618.113 118.434C617.923 118.434 617.758 118.369 617.619 118.239ZM617.593 126V119.5H618.633V126H617.593ZM620.133 126V116.25H621.173V126H620.133ZM622.36 125.324C622.36 125.09 622.438 124.895 622.594 124.739C622.75 124.574 622.949 124.492 623.192 124.492C623.426 124.492 623.621 124.574 623.777 124.739C623.942 124.895 624.024 125.09 624.024 125.324C624.024 125.567 623.946 125.766 623.79 125.922C623.634 126.078 623.435 126.156 623.192 126.156C622.958 126.156 622.759 126.078 622.594 125.922C622.438 125.766 622.36 125.567 622.36 125.324ZM624.924 125.324C624.924 125.09 625.002 124.895 625.158 124.739C625.314 124.574 625.514 124.492 625.756 124.492C625.99 124.492 626.185 124.574 626.341 124.739C626.506 124.895 626.588 125.09 626.588 125.324C626.588 125.567 626.51 125.766 626.354 125.922C626.198 126.078 625.999 126.156 625.756 126.156C625.522 126.156 625.323 126.078 625.158 125.922C625.002 125.766 624.924 125.567 624.924 125.324ZM627.489 125.324C627.489 125.09 627.567 124.895 627.723 124.739C627.879 124.574 628.078 124.492 628.321 124.492C628.555 124.492 628.75 124.574 628.906 124.739C629.071 124.895 629.153 125.09 629.153 125.324C629.153 125.567 629.075 125.766 628.919 125.922C628.763 126.078 628.564 126.156 628.321 126.156C628.087 126.156 627.888 126.078 627.723 125.922C627.567 125.766 627.489 125.567 627.489 125.324Z" fill="#787878"/>
<path d="M200.29 102.24H205.76V104.16H204.96V103H201.09V104.16H200.29V102.24ZM200.53 102.24C200.843 102.247 201.083 102.15 201.25 101.95C201.423 101.743 201.51 101.487 201.51 101.18V98H205.06V103H204.26V98.78H202.31V101.32C202.31 101.733 202.153 102.093 201.84 102.4C201.527 102.7 201.123 102.85 200.63 102.85H200.34V102.24H200.53ZM206.585 102.22C206.865 102.22 207.082 102.133 207.235 101.96C207.388 101.78 207.465 101.553 207.465 101.28V98H211.015V103H210.215V98.78H208.265V101.41C208.265 101.843 208.118 102.217 207.825 102.53C207.532 102.843 207.152 103 206.685 103H206.375V102.22H206.585ZM213.782 100.44H215.642V98.78H213.782C213.502 98.78 213.265 98.86 213.072 99.02C212.885 99.1733 212.792 99.3633 212.792 99.59C212.792 99.8367 212.885 100.04 213.072 100.2C213.265 100.36 213.502 100.44 213.782 100.44ZM214.362 101.17L212.942 103H211.962L213.442 101.12C213.015 101.093 212.662 100.933 212.382 100.64C212.102 100.347 211.962 99.9933 211.962 99.58C211.962 99.1333 212.125 98.76 212.452 98.46C212.779 98.1533 213.185 98 213.672 98H216.442V103H215.642V101.17H214.362ZM223.097 98.73H221.087V100.14H223.187C223.414 100.14 223.604 100.08 223.757 99.96C223.91 99.8333 223.987 99.6767 223.987 99.49C223.987 99.27 223.9 99.09 223.727 98.95C223.56 98.8033 223.35 98.73 223.097 98.73ZM223.197 100.81H221.087V102.27H223.197C223.45 102.27 223.66 102.203 223.827 102.07C224 101.93 224.087 101.76 224.087 101.56C224.087 101.34 224 101.16 223.827 101.02C223.66 100.88 223.45 100.81 223.197 100.81ZM223.297 103H220.287V98H223.197C223.65 98 224.027 98.1333 224.327 98.4C224.634 98.66 224.787 98.99 224.787 99.39C224.787 99.61 224.727 99.8133 224.607 100C224.494 100.18 224.334 100.32 224.127 100.42C224.36 100.533 224.544 100.697 224.677 100.91C224.817 101.123 224.887 101.363 224.887 101.63C224.887 102.017 224.734 102.343 224.427 102.61C224.127 102.87 223.75 103 223.297 103ZM225.544 102.24H231.014V104.16H230.214V103H226.344V104.16H225.544V102.24ZM225.784 102.24C226.097 102.247 226.337 102.15 226.504 101.95C226.677 101.743 226.764 101.487 226.764 101.18V98H230.314V103H229.514V98.78H227.564V101.32C227.564 101.733 227.407 102.093 227.094 102.4C226.781 102.7 226.377 102.85 225.884 102.85H225.594V102.24H225.784ZM233.019 99.12C232.652 99.4733 232.469 99.93 232.469 100.49C232.469 101.05 232.652 101.51 233.019 101.87C233.392 102.223 233.846 102.4 234.379 102.4C234.912 102.4 235.362 102.223 235.729 101.87C236.102 101.51 236.289 101.05 236.289 100.49C236.289 99.93 236.102 99.4733 235.729 99.12C235.362 98.76 234.912 98.58 234.379 98.58C233.846 98.58 233.392 98.76 233.019 99.12ZM232.449 102.42C231.929 101.913 231.669 101.27 231.669 100.49C231.669 99.71 231.929 99.0667 232.449 98.56C232.976 98.0533 233.619 97.8 234.379 97.8C235.139 97.8 235.779 98.0533 236.299 98.56C236.826 99.0667 237.089 99.71 237.089 100.49C237.089 101.27 236.826 101.913 236.299 102.42C235.779 102.927 235.139 103.18 234.379 103.18C233.619 103.18 232.976 102.927 232.449 102.42ZM242.671 103H241.711L240.221 101.02L238.751 103H237.771L239.651 100.5L237.771 98H238.751L240.221 99.98L241.711 98H242.671L240.791 100.5L242.671 103ZM243.549 103V98H244.349V100.11H247.469V98H248.269V103H247.469V100.87H244.349V103H243.549ZM250.568 99.12C250.201 99.4733 250.018 99.93 250.018 100.49C250.018 101.05 250.201 101.51 250.568 101.87C250.941 102.223 251.395 102.4 251.928 102.4C252.461 102.4 252.911 102.223 253.278 101.87C253.651 101.51 253.838 101.05 253.838 100.49C253.838 99.93 253.651 99.4733 253.278 99.12C252.911 98.76 252.461 98.58 251.928 98.58C251.395 98.58 250.941 98.76 250.568 99.12ZM249.998 102.42C249.478 101.913 249.218 101.27 249.218 100.49C249.218 99.71 249.478 99.0667 249.998 98.56C250.525 98.0533 251.168 97.8 251.928 97.8C252.688 97.8 253.328 98.0533 253.848 98.56C254.375 99.0667 254.638 99.71 254.638 100.49C254.638 101.27 254.375 101.913 253.848 102.42C253.328 102.927 252.688 103.18 251.928 103.18C251.168 103.18 250.525 102.927 249.998 102.42ZM258.41 98.73H256.4V100.14H258.5C258.726 100.14 258.916 100.08 259.07 99.96C259.223 99.8333 259.3 99.6767 259.3 99.49C259.3 99.27 259.213 99.09 259.04 98.95C258.873 98.8033 258.663 98.73 258.41 98.73ZM258.51 100.81H256.4V102.27H258.51C258.763 102.27 258.973 102.203 259.14 102.07C259.313 101.93 259.4 101.76 259.4 101.56C259.4 101.34 259.313 101.16 259.14 101.02C258.973 100.88 258.763 100.81 258.51 100.81ZM258.61 103H255.6V98H258.51C258.963 98 259.34 98.1333 259.64 98.4C259.946 98.66 260.1 98.99 260.1 99.39C260.1 99.61 260.04 99.8133 259.92 100C259.806 100.18 259.646 100.32 259.44 100.42C259.673 100.533 259.856 100.697 259.99 100.91C260.13 101.123 260.2 101.363 260.2 101.63C260.2 102.017 260.046 102.343 259.74 102.61C259.44 102.87 259.063 103 258.61 103ZM265.346 100.12C265.306 99.6533 265.116 99.2767 264.776 98.99C264.436 98.7033 264.026 98.56 263.546 98.56C263.086 98.56 262.69 98.7033 262.356 98.99C262.03 99.27 261.836 99.6467 261.776 100.12H265.346ZM261.776 100.85C261.836 101.323 262.036 101.703 262.376 101.99C262.716 102.277 263.12 102.42 263.586 102.42C263.946 102.42 264.273 102.337 264.566 102.17C264.86 101.997 265.08 101.76 265.226 101.46L265.966 101.75C265.746 102.19 265.423 102.54 264.996 102.8C264.576 103.053 264.11 103.18 263.596 103.18C262.85 103.18 262.22 102.927 261.706 102.42C261.2 101.907 260.946 101.263 260.946 100.49C260.946 99.7167 261.196 99.0767 261.696 98.57C262.196 98.0567 262.81 97.8 263.536 97.8C264.27 97.8 264.89 98.05 265.396 98.55C265.903 99.0433 266.156 99.6667 266.156 100.42C266.156 100.54 266.14 100.683 266.106 100.85H261.776ZM267.103 103V98H267.903V100.11H271.023V98H271.823V103H271.023V100.87H267.903V103H267.103ZM277.473 103H276.673V99L273.923 103H272.973V98H273.773V101.9L276.513 98H277.473V103ZM280.247 100.44H282.107V98.78H280.247C279.967 98.78 279.73 98.86 279.537 99.02C279.35 99.1733 279.257 99.3633 279.257 99.59C279.257 99.8367 279.35 100.04 279.537 100.2C279.73 100.36 279.967 100.44 280.247 100.44ZM280.827 101.17L279.407 103H278.427L279.907 101.12C279.48 101.093 279.127 100.933 278.847 100.64C278.567 100.347 278.427 99.9933 278.427 99.58C278.427 99.1333 278.59 98.76 278.917 98.46C279.244 98.1533 279.65 98 280.137 98H282.907V103H282.107V101.17H280.827ZM286.752 103V98H287.552V100.11H290.672V98H291.472V103H290.672V100.87H287.552V103H286.752ZM295.661 100.69L294.231 100.86C293.558 100.947 293.221 101.203 293.221 101.63C293.221 101.857 293.314 102.04 293.501 102.18C293.688 102.313 293.938 102.38 294.251 102.38C294.678 102.38 295.018 102.253 295.271 102C295.531 101.747 295.661 101.413 295.661 101H296.011C296.011 101.607 295.824 102.11 295.451 102.51C295.078 102.91 294.611 103.11 294.051 103.11C293.578 103.11 293.184 102.977 292.871 102.71C292.564 102.437 292.411 102.087 292.411 101.66C292.418 101.253 292.564 100.917 292.851 100.65C293.144 100.383 293.548 100.22 294.061 100.16L295.661 99.98V99.78C295.661 99.4733 295.541 99.2067 295.301 98.98C295.068 98.7533 294.781 98.64 294.441 98.64C294.134 98.64 293.861 98.7233 293.621 98.89C293.388 99.0567 293.241 99.2733 293.181 99.54L292.421 99.3C292.554 98.88 292.801 98.54 293.161 98.28C293.528 98.02 293.941 97.89 294.401 97.89C294.961 97.89 295.444 98.07 295.851 98.43C296.258 98.7833 296.461 99.2067 296.461 99.7V103H295.661V100.69ZM301.447 99.12C301.087 99.4733 300.907 99.93 300.907 100.49C300.907 101.05 301.087 101.51 301.447 101.87C301.807 102.223 302.247 102.4 302.767 102.4C303.14 102.4 303.477 102.31 303.777 102.13C304.077 101.95 304.307 101.697 304.467 101.37L305.197 101.7C304.977 102.153 304.65 102.513 304.217 102.78C303.783 103.047 303.3 103.18 302.767 103.18C302.02 103.18 301.39 102.927 300.877 102.42C300.363 101.913 300.107 101.27 300.107 100.49C300.107 99.71 300.363 99.0667 300.877 98.56C301.39 98.0533 302.02 97.8 302.767 97.8C303.307 97.8 303.797 97.9367 304.237 98.21C304.677 98.4833 305.003 98.8567 305.217 99.33L304.487 99.66C304.333 99.32 304.103 99.0567 303.797 98.87C303.49 98.6767 303.147 98.58 302.767 98.58C302.247 98.58 301.807 98.76 301.447 99.12ZM309.206 100.69L307.776 100.86C307.103 100.947 306.766 101.203 306.766 101.63C306.766 101.857 306.859 102.04 307.046 102.18C307.233 102.313 307.483 102.38 307.796 102.38C308.223 102.38 308.563 102.253 308.816 102C309.076 101.747 309.206 101.413 309.206 101H309.556C309.556 101.607 309.369 102.11 308.996 102.51C308.623 102.91 308.156 103.11 307.596 103.11C307.123 103.11 306.729 102.977 306.416 102.71C306.109 102.437 305.956 102.087 305.956 101.66C305.963 101.253 306.109 100.917 306.396 100.65C306.689 100.383 307.093 100.22 307.606 100.16L309.206 99.98V99.78C309.206 99.4733 309.086 99.2067 308.846 98.98C308.613 98.7533 308.326 98.64 307.986 98.64C307.679 98.64 307.406 98.7233 307.166 98.89C306.933 99.0567 306.786 99.2733 306.726 99.54L305.966 99.3C306.099 98.88 306.346 98.54 306.706 98.28C307.073 98.02 307.486 97.89 307.946 97.89C308.506 97.89 308.989 98.07 309.396 98.43C309.803 98.7833 310.006 99.2067 310.006 99.7V103H309.206V100.69ZM311.156 103V98H312.096L314.056 101.3L316.016 98H316.956V103H316.156V99.16L314.336 102.26H313.786L311.956 99.16V103H311.156ZM323.469 103V98H324.269V103H323.469ZM320.959 100.76H318.889V102.22H320.959C321.212 102.22 321.422 102.153 321.589 102.02C321.756 101.88 321.839 101.71 321.839 101.51C321.839 101.297 321.756 101.12 321.589 100.98C321.422 100.833 321.212 100.76 320.959 100.76ZM321.059 100C321.506 100 321.879 100.147 322.179 100.44C322.486 100.733 322.639 101.093 322.639 101.52C322.639 101.94 322.486 102.293 322.179 102.58C321.879 102.86 321.506 103 321.059 103H318.089V98H318.889V100H321.059ZM329.624 100.12C329.584 99.6533 329.394 99.2767 329.054 98.99C328.714 98.7033 328.304 98.56 327.824 98.56C327.364 98.56 326.967 98.7033 326.634 98.99C326.307 99.27 326.114 99.6467 326.054 100.12H329.624ZM326.054 100.85C326.114 101.323 326.314 101.703 326.654 101.99C326.994 102.277 327.397 102.42 327.864 102.42C328.224 102.42 328.55 102.337 328.844 102.17C329.137 101.997 329.357 101.76 329.504 101.46L330.244 101.75C330.024 102.19 329.7 102.54 329.274 102.8C328.854 103.053 328.387 103.18 327.874 103.18C327.127 103.18 326.497 102.927 325.984 102.42C325.477 101.907 325.224 101.263 325.224 100.49C325.224 99.7167 325.474 99.0767 325.974 98.57C326.474 98.0567 327.087 97.8 327.814 97.8C328.547 97.8 329.167 98.05 329.674 98.55C330.18 99.0433 330.434 99.6667 330.434 100.42C330.434 100.54 330.417 100.683 330.384 100.85H326.054ZM201.72 115.12C201.36 115.473 201.18 115.93 201.18 116.49C201.18 117.05 201.36 117.51 201.72 117.87C202.08 118.223 202.52 118.4 203.04 118.4C203.413 118.4 203.75 118.31 204.05 118.13C204.35 117.95 204.58 117.697 204.74 117.37L205.47 117.7C205.25 118.153 204.923 118.513 204.49 118.78C204.057 119.047 203.573 119.18 203.04 119.18C202.293 119.18 201.663 118.927 201.15 118.42C200.637 117.913 200.38 117.27 200.38 116.49C200.38 115.71 200.637 115.067 201.15 114.56C201.663 114.053 202.293 113.8 203.04 113.8C203.58 113.8 204.07 113.937 204.51 114.21C204.95 114.483 205.277 114.857 205.49 115.33L204.76 115.66C204.607 115.32 204.377 115.057 204.07 114.87C203.763 114.677 203.42 114.58 203.04 114.58C202.52 114.58 202.08 114.76 201.72 115.12ZM206.439 119V114H207.379L209.339 117.3L211.299 114H212.239V119H211.439V115.16L209.619 118.26H209.069L207.239 115.16V119H206.439ZM217.602 116.12C217.562 115.653 217.372 115.277 217.032 114.99C216.692 114.703 216.282 114.56 215.802 114.56C215.342 114.56 214.946 114.703 214.612 114.99C214.286 115.27 214.092 115.647 214.032 116.12H217.602ZM214.032 116.85C214.092 117.323 214.292 117.703 214.632 117.99C214.972 118.277 215.376 118.42 215.842 118.42C216.202 118.42 216.529 118.337 216.822 118.17C217.116 117.997 217.336 117.76 217.482 117.46L218.222 117.75C218.002 118.19 217.679 118.54 217.252 118.8C216.832 119.053 216.366 119.18 215.852 119.18C215.106 119.18 214.476 118.927 213.962 118.42C213.456 117.907 213.202 117.263 213.202 116.49C213.202 115.717 213.452 115.077 213.952 114.57C214.452 114.057 215.066 113.8 215.792 113.8C216.526 113.8 217.146 114.05 217.652 114.55C218.159 115.043 218.412 115.667 218.412 116.42C218.412 116.54 218.396 116.683 218.362 116.85H214.032ZM219.329 118.22C219.609 118.22 219.826 118.133 219.979 117.96C220.133 117.78 220.209 117.553 220.209 117.28V114H223.759V119H222.959V114.78H221.009V117.41C221.009 117.843 220.863 118.217 220.569 118.53C220.276 118.843 219.896 119 219.429 119H219.119V118.22H219.329ZM230.256 119V114H231.056V119H230.256ZM227.746 116.76H225.676V118.22H227.746C228 118.22 228.21 118.153 228.376 118.02C228.543 117.88 228.626 117.71 228.626 117.51C228.626 117.297 228.543 117.12 228.376 116.98C228.21 116.833 228 116.76 227.746 116.76ZM227.846 116C228.293 116 228.666 116.147 228.966 116.44C229.273 116.733 229.426 117.093 229.426 117.52C229.426 117.94 229.273 118.293 228.966 118.58C228.666 118.86 228.293 119 227.846 119H224.876V114H225.676V116H227.846ZM236.411 116.12C236.371 115.653 236.181 115.277 235.841 114.99C235.501 114.703 235.091 114.56 234.611 114.56C234.151 114.56 233.754 114.703 233.421 114.99C233.094 115.27 232.901 115.647 232.841 116.12H236.411ZM232.841 116.85C232.901 117.323 233.101 117.703 233.441 117.99C233.781 118.277 234.184 118.42 234.651 118.42C235.011 118.42 235.338 118.337 235.631 118.17C235.924 117.997 236.144 117.76 236.291 117.46L237.031 117.75C236.811 118.19 236.488 118.54 236.061 118.8C235.641 119.053 235.174 119.18 234.661 119.18C233.914 119.18 233.284 118.927 232.771 118.42C232.264 117.907 232.011 117.263 232.011 116.49C232.011 115.717 232.261 115.077 232.761 114.57C233.261 114.057 233.874 113.8 234.601 113.8C235.334 113.8 235.954 114.05 236.461 114.55C236.968 115.043 237.221 115.667 237.221 116.42C237.221 116.54 237.204 116.683 237.171 116.85H232.841ZM245.363 119H244.563V115L241.813 119H240.863V114H241.663V117.9L244.403 114H245.363V119ZM246.228 118.24H251.698V120.16H250.898V119H247.028V120.16H246.228V118.24ZM246.468 118.24C246.781 118.247 247.021 118.15 247.188 117.95C247.361 117.743 247.448 117.487 247.448 117.18V114H250.998V119H250.198V114.78H248.248V117.32C248.248 117.733 248.091 118.093 247.778 118.4C247.464 118.7 247.061 118.85 246.568 118.85H246.278V118.24H246.468ZM256.753 116.12C256.713 115.653 256.523 115.277 256.183 114.99C255.843 114.703 255.433 114.56 254.953 114.56C254.493 114.56 254.096 114.703 253.763 114.99C253.436 115.27 253.243 115.647 253.183 116.12H256.753ZM253.183 116.85C253.243 117.323 253.443 117.703 253.783 117.99C254.123 118.277 254.526 118.42 254.993 118.42C255.353 118.42 255.679 118.337 255.973 118.17C256.266 117.997 256.486 117.76 256.633 117.46L257.373 117.75C257.153 118.19 256.829 118.54 256.403 118.8C255.983 119.053 255.516 119.18 255.003 119.18C254.256 119.18 253.626 118.927 253.113 118.42C252.606 117.907 252.353 117.263 252.353 116.49C252.353 115.717 252.603 115.077 253.103 114.57C253.603 114.057 254.216 113.8 254.943 113.8C255.676 113.8 256.296 114.05 256.803 114.55C257.309 115.043 257.563 115.667 257.563 116.42C257.563 116.54 257.546 116.683 257.513 116.85H253.183ZM263.01 119H262.21V115L259.46 119H258.51V114H259.31V117.9L262.05 114H263.01V119ZM263.924 118.48C263.924 118.3 263.984 118.15 264.104 118.03C264.224 117.903 264.377 117.84 264.564 117.84C264.744 117.84 264.894 117.903 265.014 118.03C265.141 118.15 265.204 118.3 265.204 118.48C265.204 118.667 265.144 118.82 265.024 118.94C264.904 119.06 264.751 119.12 264.564 119.12C264.384 119.12 264.231 119.06 264.104 118.94C263.984 118.82 263.924 118.667 263.924 118.48Z" fill="white"/>
<defs>
<clipPath id="clip0_510_1121">
<rect width="31" height="31" fill="white" transform="translate(1079 102)"/>
</clipPath>
<clipPath id="clip1_510_1121">
<rect width="30" height="31" fill="white" transform="translate(1142 102)"/>
</clipPath>
</defs>
</svg>
