<svg width="1440" height="177" viewBox="0 0 1440 177" fill="none" xmlns="http://www.w3.org/2000/svg">
<path d="M0 0H1440V177.5H0V0Z" fill="#1A1A1A"/>
<g clip-path="url(#clip0_514_14592)">
<path fill-rule="evenodd" clip-rule="evenodd" d="M1056.83 55.9534C1056.83 62.555 1051.48 67.9068 1044.88 67.9068C1038.28 67.9068 1032.93 62.555 1032.93 55.9534C1032.93 49.3517 1038.28 44 1044.88 44C1051.48 44 1056.83 49.3517 1056.83 55.9534ZM1040.93 54.8584C1039.73 55.3812 1038.5 55.9184 1037.38 56.5381C1036.79 56.9682 1037.57 57.2725 1038.31 57.5579C1038.42 57.6033 1038.54 57.6481 1038.65 57.693C1038.74 57.7207 1038.83 57.7499 1038.92 57.7795C1039.73 58.039 1040.64 58.3284 1041.43 57.8931C1042.73 57.1467 1043.96 56.2839 1045.18 55.4217C1045.59 55.1392 1045.99 54.8568 1046.39 54.5786C1046.41 54.5665 1046.43 54.5527 1046.45 54.5376C1046.8 54.3146 1047.57 53.8132 1047.29 54.5041C1046.61 55.244 1045.88 55.899 1045.16 56.5575C1044.66 57.0014 1044.17 57.4468 1043.69 57.921C1043.27 58.2614 1042.84 58.9461 1043.31 59.4229C1044.39 60.1795 1045.48 60.9177 1046.58 61.6555C1046.94 61.8956 1047.3 62.1356 1047.65 62.3763C1048.25 62.8583 1049.2 62.4684 1049.33 61.7152C1049.39 61.3687 1049.45 61.0222 1049.51 60.6757C1049.84 58.7608 1050.16 56.8453 1050.45 54.9242C1050.49 54.6228 1050.54 54.3215 1050.58 54.02C1050.69 53.2893 1050.8 52.5577 1050.83 51.823C1050.75 51.0899 1049.86 51.2511 1049.36 51.416C1046.82 52.3835 1044.3 53.4228 1041.79 54.4803C1041.51 54.6061 1041.22 54.7319 1040.93 54.8584Z" fill="white"/>
</g>
<g clip-path="url(#clip1_514_14592)">
<mask id="mask0_514_14592" style="mask-type:luminance" maskUnits="userSpaceOnUse" x="1033" y="74" width="24" height="25">
<path d="M1056.33 74.8477H1033.43V98.7544H1056.33V74.8477Z" fill="white"/>
</mask>
<g mask="url(#mask0_514_14592)">
<path fill-rule="evenodd" clip-rule="evenodd" d="M1035.04 76.5282C1033.43 78.2087 1033.43 80.9134 1033.43 86.3229V87.2792C1033.43 92.6887 1033.43 95.3934 1035.04 97.0739C1036.65 98.7544 1039.24 98.7544 1044.42 98.7544H1045.34C1050.52 98.7544 1053.11 98.7544 1054.72 97.0739C1056.33 95.3934 1056.33 92.6887 1056.33 87.2792V86.3229C1056.33 80.9134 1056.33 78.2087 1054.72 76.5282C1053.11 74.8477 1050.52 74.8477 1045.34 74.8477H1044.42C1039.24 74.8477 1036.65 74.8477 1035.04 76.5282ZM1037.29 82.1194C1037.42 88.3351 1040.4 92.0705 1045.62 92.0705H1045.91V88.5144C1047.83 88.7136 1049.28 90.1779 1049.86 92.0705H1052.57C1051.83 89.2416 1049.87 87.6777 1048.65 87.08C1049.87 86.3429 1051.59 84.5499 1052 82.1194H1049.54C1049 84.0917 1047.42 85.8847 1045.91 86.054V82.1194H1043.45V89.0124C1041.92 88.614 1039.99 86.6816 1039.91 82.1194H1037.29Z" fill="white"/>
</g>
</g>
<g clip-path="url(#clip2_514_14592)">
<path d="M1044.9 109.608C1046.13 109.608 1047.36 109.587 1048.59 109.613C1050.15 109.644 1051.71 109.702 1053.27 109.771C1053.91 109.803 1054.57 109.818 1055.21 109.94C1056.73 110.224 1057.64 111.136 1058.06 112.576C1058.28 113.34 1058.36 114.126 1058.43 114.911C1058.62 117.025 1058.58 119.139 1058.53 121.253C1058.5 122.502 1058.44 123.762 1058.12 124.985C1057.98 125.486 1057.82 125.987 1057.53 126.425C1056.98 127.221 1056.2 127.674 1055.25 127.843C1054.43 127.99 1053.6 128.006 1052.77 128.043C1051.24 128.112 1049.7 128.143 1048.17 128.18C1046.35 128.228 1044.53 128.217 1042.72 128.201C1041.25 128.185 1039.78 128.154 1038.31 128.096C1037.07 128.048 1035.82 128.027 1034.59 127.795C1033.92 127.669 1033.32 127.395 1032.79 126.941C1032.31 126.509 1032.06 125.95 1031.87 125.36C1031.48 124.094 1031.45 122.787 1031.37 121.48C1031.28 119.951 1031.3 118.422 1031.34 116.898C1031.37 115.612 1031.43 114.321 1031.71 113.055C1031.87 112.307 1032.1 111.563 1032.65 110.989C1033.34 110.282 1034.22 109.945 1035.21 109.876C1036.4 109.797 1037.59 109.745 1038.78 109.697C1040.82 109.613 1042.86 109.587 1044.9 109.608ZM1049.41 118.633C1049.39 118.57 1049.33 118.559 1049.28 118.538C1048.01 117.884 1046.73 117.231 1045.45 116.577C1044.44 116.06 1043.42 115.538 1042.41 115.016C1042.13 114.874 1042.12 114.879 1042.12 115.196C1042.12 117.468 1042.12 119.74 1042.12 122.017C1042.12 122.06 1042.12 122.107 1042.12 122.149C1042.12 122.286 1042.17 122.328 1042.3 122.26C1042.46 122.176 1042.61 122.091 1042.78 122.007C1044.91 120.931 1047.06 119.851 1049.19 118.775C1049.27 118.733 1049.37 118.717 1049.41 118.633Z" fill="white"/>
</g>
<path d="M1081.93 49.1869C1081.1 49.9894 1080.68 51.0267 1080.68 52.2987C1080.68 53.5707 1081.1 54.6156 1081.93 55.4333C1082.78 56.2359 1083.81 56.6371 1085.02 56.6371C1086.23 56.6371 1087.25 56.2359 1088.09 55.4333C1088.93 54.6156 1089.36 53.5707 1089.36 52.2987C1089.36 51.0267 1088.93 49.9894 1088.09 49.1869C1087.25 48.3691 1086.23 47.9603 1085.02 47.9603C1083.81 47.9603 1082.78 48.3691 1081.93 49.1869ZM1080.63 56.6826C1079.45 55.5317 1078.86 54.0704 1078.86 52.2987C1078.86 50.527 1079.45 49.0657 1080.63 47.9149C1081.83 46.764 1083.29 46.1886 1085.02 46.1886C1086.74 46.1886 1088.2 46.764 1089.38 47.9149C1090.58 49.0657 1091.17 50.527 1091.17 52.2987C1091.17 54.0704 1090.58 55.5317 1089.38 56.6826C1088.2 57.8334 1086.74 58.4089 1085.02 58.4089C1083.29 58.4089 1081.83 57.8334 1080.63 56.6826ZM1095.95 49.1869C1095.13 49.9894 1094.72 51.0267 1094.72 52.2987C1094.72 53.5707 1095.13 54.6156 1095.95 55.4333C1096.77 56.2359 1097.77 56.6371 1098.95 56.6371C1099.79 56.6371 1100.56 56.4327 1101.24 56.0239C1101.92 55.615 1102.44 55.0396 1102.81 54.2976L1104.47 55.0471C1103.97 56.0769 1103.22 56.8946 1102.24 57.5003C1101.26 58.106 1100.16 58.4089 1098.95 58.4089C1097.25 58.4089 1095.82 57.8334 1094.65 56.6826C1093.49 55.5317 1092.9 54.0704 1092.9 52.2987C1092.9 50.527 1093.49 49.0657 1094.65 47.9149C1095.82 46.764 1097.25 46.1886 1098.95 46.1886C1100.17 46.1886 1101.29 46.499 1102.29 47.1199C1103.28 47.7407 1104.03 48.5887 1104.51 49.6639L1102.85 50.4134C1102.5 49.6411 1101.98 49.043 1101.29 48.619C1100.59 48.1799 1099.81 47.9603 1098.95 47.9603C1097.77 47.9603 1096.77 48.3691 1095.95 49.1869ZM1115.57 46.6429V48.3691H1111.71V58H1109.89V48.3691H1106.03V46.6429H1115.57ZM1124.49 52.753L1121.24 53.1391C1119.71 53.336 1118.94 53.919 1118.94 54.8881C1118.94 55.403 1119.16 55.8194 1119.58 56.1374C1120 56.4403 1120.57 56.5917 1121.28 56.5917C1122.25 56.5917 1123.03 56.304 1123.6 55.7286C1124.19 55.1531 1124.49 54.396 1124.49 53.4571H1125.28C1125.28 54.8351 1124.86 55.9784 1124.01 56.887C1123.16 57.7956 1122.1 58.2499 1120.83 58.2499C1119.75 58.2499 1118.86 57.947 1118.15 57.3413C1117.45 56.7204 1117.1 55.9254 1117.1 54.9563C1117.12 54.0326 1117.45 53.2679 1118.1 52.6621C1118.77 52.0564 1119.69 51.6854 1120.85 51.5491L1124.49 51.1403V50.686C1124.49 49.9894 1124.21 49.3837 1123.67 48.8689C1123.14 48.354 1122.49 48.0966 1121.72 48.0966C1121.02 48.0966 1120.4 48.2859 1119.85 48.6644C1119.32 49.043 1118.99 49.5351 1118.85 50.1409L1117.13 49.5957C1117.43 48.6417 1117.99 47.8694 1118.81 47.2789C1119.64 46.6883 1120.58 46.393 1121.62 46.393C1122.9 46.393 1123.99 46.8019 1124.92 47.6196C1125.84 48.4221 1126.3 49.3837 1126.3 50.5043V58H1124.49V52.753ZM1135.3 48.301H1130.73V51.5037H1135.5C1136.02 51.5037 1136.45 51.3674 1136.8 51.0949C1137.15 50.8071 1137.32 50.4513 1137.32 50.0273C1137.32 49.5276 1137.12 49.1187 1136.73 48.8007C1136.35 48.4676 1135.87 48.301 1135.3 48.301ZM1135.53 53.0256H1130.73V56.3419H1135.53C1136.1 56.3419 1136.58 56.1904 1136.96 55.8876C1137.35 55.5696 1137.55 55.1834 1137.55 54.7291C1137.55 54.2294 1137.35 53.8206 1136.96 53.5026C1136.58 53.1846 1136.1 53.0256 1135.53 53.0256ZM1135.75 58H1128.92V46.6429H1135.53C1136.56 46.6429 1137.41 46.9457 1138.09 47.5514C1138.79 48.142 1139.14 48.8916 1139.14 49.8001C1139.14 50.2999 1139 50.7617 1138.73 51.1857C1138.47 51.5946 1138.11 51.9126 1137.64 52.1397C1138.17 52.3971 1138.58 52.7681 1138.89 53.2527C1139.21 53.7373 1139.36 54.2824 1139.36 54.8881C1139.36 55.7664 1139.02 56.5084 1138.32 57.1141C1137.64 57.7047 1136.78 58 1135.75 58ZM1148.42 52.753L1145.17 53.1391C1143.64 53.336 1142.88 53.919 1142.88 54.8881C1142.88 55.403 1143.09 55.8194 1143.51 56.1374C1143.94 56.4403 1144.51 56.5917 1145.22 56.5917C1146.19 56.5917 1146.96 56.304 1147.53 55.7286C1148.13 55.1531 1148.42 54.396 1148.42 53.4571H1149.22C1149.22 54.8351 1148.79 55.9784 1147.94 56.887C1147.1 57.7956 1146.04 58.2499 1144.76 58.2499C1143.69 58.2499 1142.8 57.947 1142.08 57.3413C1141.39 56.7204 1141.04 55.9254 1141.04 54.9563C1141.05 54.0326 1141.39 53.2679 1142.04 52.6621C1142.7 52.0564 1143.62 51.6854 1144.79 51.5491L1148.42 51.1403V50.686C1148.42 49.9894 1148.15 49.3837 1147.6 48.8689C1147.07 48.354 1146.42 48.0966 1145.65 48.0966C1144.95 48.0966 1144.33 48.2859 1143.79 48.6644C1143.26 49.043 1142.92 49.5351 1142.79 50.1409L1141.06 49.5957C1141.36 48.6417 1141.92 47.8694 1142.74 47.2789C1143.57 46.6883 1144.51 46.393 1145.56 46.393C1146.83 46.393 1147.93 46.8019 1148.85 47.6196C1149.78 48.4221 1150.24 49.3837 1150.24 50.5043V58H1148.42V52.753ZM1158.01 44.9166C1156.96 44.9166 1156.08 44.5759 1155.35 43.8944C1154.62 43.1979 1154.26 42.365 1154.26 41.3959H1155.78C1155.78 42.0016 1155.99 42.5013 1156.42 42.895C1156.84 43.2887 1157.38 43.4856 1158.03 43.4856C1158.7 43.4856 1159.26 43.2811 1159.71 42.8723C1160.18 42.4634 1160.41 41.9713 1160.41 41.3959H1161.94C1161.94 42.3347 1161.54 43.16 1160.76 43.8717C1159.98 44.5683 1159.07 44.9166 1158.01 44.9166ZM1163.07 58H1161.25V48.9143L1155.01 58H1152.85V46.6429H1154.67V55.5014L1160.89 46.6429H1163.07V58ZM1174.6 46.6429V48.3691H1170.74V58H1168.92V48.3691H1165.06V46.6429H1174.6ZM1186.15 51.4583C1186.06 50.3983 1185.62 49.5427 1184.85 48.8916C1184.08 48.2404 1183.15 47.9149 1182.06 47.9149C1181.01 47.9149 1180.11 48.2404 1179.36 48.8916C1178.61 49.5276 1178.17 50.3831 1178.04 51.4583H1186.15ZM1178.04 53.1164C1178.17 54.1916 1178.63 55.0547 1179.4 55.7059C1180.17 56.357 1181.09 56.6826 1182.15 56.6826C1182.97 56.6826 1183.71 56.4933 1184.38 56.1147C1185.04 55.721 1185.54 55.1834 1185.87 54.502L1187.56 55.1607C1187.06 56.1601 1186.32 56.9551 1185.35 57.5457C1184.4 58.1211 1183.34 58.4089 1182.17 58.4089C1180.48 58.4089 1179.05 57.8334 1177.88 56.6826C1176.73 55.5166 1176.15 54.0553 1176.15 52.2987C1176.15 50.5421 1176.72 49.0884 1177.86 47.9376C1178.99 46.7716 1180.39 46.1886 1182.04 46.1886C1183.7 46.1886 1185.11 46.7564 1186.26 47.8921C1187.41 49.0127 1187.99 50.4286 1187.99 52.1397C1187.99 52.4123 1187.95 52.7379 1187.87 53.1164H1178.04ZM1192.73 49.1869C1191.91 49.9894 1191.5 51.0267 1191.5 52.2987C1191.5 53.5707 1191.91 54.6156 1192.73 55.4333C1193.55 56.2359 1194.54 56.6371 1195.73 56.6371C1196.57 56.6371 1197.34 56.4327 1198.02 56.0239C1198.7 55.615 1199.22 55.0396 1199.59 54.2976L1201.25 55.0471C1200.75 56.0769 1200 56.8946 1199.02 57.5003C1198.04 58.106 1196.94 58.4089 1195.73 58.4089C1194.03 58.4089 1192.6 57.8334 1191.43 56.6826C1190.27 55.5317 1189.68 54.0704 1189.68 52.2987C1189.68 50.527 1190.27 49.0657 1191.43 47.9149C1192.6 46.764 1194.03 46.1886 1195.73 46.1886C1196.95 46.1886 1198.07 46.499 1199.07 47.1199C1200.06 47.7407 1200.81 48.5887 1201.29 49.6639L1199.63 50.4134C1199.28 49.6411 1198.76 49.043 1198.07 48.619C1197.37 48.1799 1196.59 47.9603 1195.73 47.9603C1194.54 47.9603 1193.55 48.3691 1192.73 49.1869ZM1210.13 52.912H1205.26V56.2283H1210.13C1210.7 56.2283 1211.18 56.0769 1211.56 55.774C1211.94 55.456 1212.12 55.0699 1212.12 54.6156C1212.12 54.131 1211.94 53.7297 1211.56 53.4117C1211.18 53.0786 1210.7 52.912 1210.13 52.912ZM1210.35 51.1857C1211.37 51.1857 1212.22 51.5189 1212.9 52.1851C1213.59 52.8514 1213.94 53.6691 1213.94 54.6383C1213.94 55.5923 1213.59 56.3949 1212.9 57.046C1212.22 57.682 1211.37 58 1210.35 58H1203.45V46.6429H1205.26V51.1857H1210.35ZM1079.32 84V72.6429H1081.13V77.4356H1088.22V72.6429H1090.04V84H1088.22V79.1619H1081.13V84H1079.32ZM1099.55 78.753L1096.31 79.1391C1094.78 79.336 1094.01 79.919 1094.01 80.8881C1094.01 81.403 1094.22 81.8194 1094.65 82.1374C1095.07 82.4403 1095.64 82.5917 1096.35 82.5917C1097.32 82.5917 1098.09 82.304 1098.67 81.7286C1099.26 81.1531 1099.55 80.396 1099.55 79.4571H1100.35C1100.35 80.8351 1099.92 81.9784 1099.08 82.887C1098.23 83.7956 1097.17 84.2499 1095.9 84.2499C1094.82 84.2499 1093.93 83.947 1093.22 83.3413C1092.52 82.7204 1092.17 81.9254 1092.17 80.9563C1092.19 80.0326 1092.52 79.2679 1093.17 78.6621C1093.84 78.0564 1094.75 77.6854 1095.92 77.5491L1099.55 77.1403V76.686C1099.55 75.9894 1099.28 75.3837 1098.74 74.8689C1098.21 74.354 1097.56 74.0966 1096.78 74.0966C1096.09 74.0966 1095.47 74.2859 1094.92 74.6644C1094.39 75.043 1094.06 75.5351 1093.92 76.1409L1092.19 75.5957C1092.5 74.6417 1093.06 73.8694 1093.88 73.2789C1094.71 72.6883 1095.65 72.393 1096.69 72.393C1097.96 72.393 1099.06 72.8019 1099.99 73.6196C1100.91 74.4221 1101.37 75.3837 1101.37 76.5043V84H1099.55V78.753ZM1112.7 75.1869C1111.88 75.9894 1111.47 77.0267 1111.47 78.2987C1111.47 79.5707 1111.88 80.6156 1112.7 81.4333C1113.51 82.2359 1114.51 82.6371 1115.69 82.6371C1116.54 82.6371 1117.31 82.4327 1117.99 82.0239C1118.67 81.615 1119.19 81.0396 1119.56 80.2976L1121.21 81.0471C1120.71 82.0769 1119.97 82.8946 1118.99 83.5003C1118 84.106 1116.91 84.4089 1115.69 84.4089C1114 84.4089 1112.57 83.8334 1111.4 82.6826C1110.23 81.5317 1109.65 80.0704 1109.65 78.2987C1109.65 76.527 1110.23 75.0657 1111.4 73.9149C1112.57 72.764 1114 72.1886 1115.69 72.1886C1116.92 72.1886 1118.03 72.499 1119.03 73.1199C1120.03 73.7407 1120.77 74.5887 1121.26 75.6639L1119.6 76.4134C1119.25 75.6411 1118.73 75.043 1118.03 74.619C1117.34 74.1799 1116.56 73.9603 1115.69 73.9603C1114.51 73.9603 1113.51 74.3691 1112.7 75.1869ZM1129.8 74.301H1125.23V77.5037H1130C1130.52 77.5037 1130.95 77.3674 1131.3 77.0949C1131.65 76.8071 1131.82 76.4513 1131.82 76.0273C1131.82 75.5276 1131.62 75.1187 1131.23 74.8007C1130.85 74.4676 1130.37 74.301 1129.8 74.301ZM1130.02 79.0256H1125.23V82.3419H1130.02C1130.6 82.3419 1131.08 82.1904 1131.46 81.8876C1131.85 81.5696 1132.05 81.1834 1132.05 80.7291C1132.05 80.2294 1131.85 79.8206 1131.46 79.5026C1131.08 79.1846 1130.6 79.0256 1130.02 79.0256ZM1130.25 84H1123.42V72.6429H1130.02C1131.05 72.6429 1131.91 72.9457 1132.59 73.5514C1133.29 74.142 1133.64 74.8916 1133.64 75.8001C1133.64 76.2999 1133.5 76.7617 1133.23 77.1857C1132.97 77.5946 1132.61 77.9126 1132.14 78.1397C1132.67 78.3971 1133.08 78.7681 1133.39 79.2527C1133.7 79.7373 1133.86 80.2824 1133.86 80.8881C1133.86 81.7664 1133.52 82.5084 1132.82 83.1141C1132.14 83.7047 1131.28 84 1130.25 84ZM1139.69 78.1851H1143.92V74.4146H1139.69C1139.06 74.4146 1138.52 74.5963 1138.08 74.9597C1137.66 75.308 1137.45 75.7396 1137.45 76.2544C1137.45 76.8147 1137.66 77.2766 1138.08 77.64C1138.52 78.0034 1139.06 78.1851 1139.69 78.1851ZM1141.01 79.8433L1137.79 84H1135.56L1138.92 79.7297C1137.95 79.6691 1137.15 79.3057 1136.51 78.6394C1135.88 77.9731 1135.56 77.1706 1135.56 76.2317C1135.56 75.2171 1135.93 74.3691 1136.67 73.6877C1137.42 72.9911 1138.34 72.6429 1139.44 72.6429H1145.74V84H1143.92V79.8433H1141.01ZM1148.3 74.8916C1148.7 74.0739 1149.27 73.4303 1150.03 72.9609C1150.8 72.4763 1151.66 72.234 1152.6 72.234C1153.78 72.234 1154.76 72.5747 1155.55 73.2561C1156.35 73.9224 1156.75 74.7629 1156.75 75.7774C1156.75 76.3074 1156.62 76.7996 1156.34 77.2539C1156.09 77.693 1155.72 78.0413 1155.25 78.2987C1155.78 78.5713 1156.2 78.965 1156.5 79.4799C1156.82 79.9796 1156.98 80.5323 1156.98 81.138C1156.98 82.0769 1156.56 82.8567 1155.73 83.4776C1154.9 84.0984 1153.86 84.4089 1152.62 84.4089C1151.56 84.4089 1150.6 84.1666 1149.76 83.682C1148.92 83.1823 1148.3 82.5009 1147.89 81.6377L1149.57 80.82C1149.83 81.3803 1150.23 81.827 1150.76 82.1601C1151.3 82.4781 1151.91 82.6371 1152.6 82.6371C1153.32 82.6371 1153.93 82.4706 1154.41 82.1374C1154.91 81.8043 1155.16 81.3879 1155.16 80.8881C1155.16 80.3733 1154.95 79.9417 1154.53 79.5934C1154.12 79.2451 1153.6 79.071 1152.98 79.071H1151.16V77.5719H1152.98C1153.54 77.5719 1154 77.4204 1154.37 77.1176C1154.75 76.8147 1154.93 76.4361 1154.93 75.9819C1154.93 75.4216 1154.71 74.9597 1154.25 74.5963C1153.8 74.2177 1153.23 74.0284 1152.55 74.0284C1151.99 74.0284 1151.48 74.1723 1151.03 74.46C1150.59 74.7477 1150.26 75.1414 1150.03 75.6411L1148.3 74.8916ZM1169.35 84H1167.53V74.9143L1161.29 84H1159.13V72.6429H1160.95V81.5014L1167.17 72.6429H1169.35V84ZM1173.7 79.5026H1171.99L1171.88 68.1H1173.81L1173.7 79.5026ZM1171.4 82.8189C1171.4 82.41 1171.54 82.0693 1171.81 81.7967C1172.08 81.509 1172.43 81.3651 1172.83 81.3651C1173.26 81.3651 1173.61 81.509 1173.88 81.7967C1174.17 82.0693 1174.31 82.41 1174.31 82.8189C1174.31 83.2429 1174.17 83.5911 1173.9 83.8637C1173.63 84.1363 1173.28 84.2726 1172.86 84.2726C1172.45 84.2726 1172.1 84.1363 1171.81 83.8637C1171.54 83.5911 1171.4 83.2429 1171.4 82.8189Z" fill="white"/>
<line x1="1078" y1="127.5" x2="1238" y2="127.5" stroke="white"/>
<path d="M1082.41 113.449H1079.79V115.282H1082.52C1082.82 115.282 1083.07 115.204 1083.27 115.048C1083.46 114.883 1083.56 114.68 1083.56 114.437C1083.56 114.151 1083.45 113.917 1083.23 113.735C1083.01 113.544 1082.74 113.449 1082.41 113.449ZM1082.54 116.153H1079.79V118.051H1082.54C1082.87 118.051 1083.14 117.964 1083.36 117.791C1083.58 117.609 1083.69 117.388 1083.69 117.128C1083.69 116.842 1083.58 116.608 1083.36 116.426C1083.14 116.244 1082.87 116.153 1082.54 116.153ZM1082.67 119H1078.75V112.5H1082.54C1083.13 112.5 1083.62 112.673 1084.01 113.02C1084.4 113.358 1084.6 113.787 1084.6 114.307C1084.6 114.593 1084.53 114.857 1084.37 115.1C1084.22 115.334 1084.01 115.516 1083.75 115.646C1084.05 115.793 1084.29 116.006 1084.46 116.283C1084.64 116.56 1084.73 116.872 1084.73 117.219C1084.73 117.722 1084.53 118.146 1084.14 118.493C1083.75 118.831 1083.26 119 1082.67 119ZM1089.92 115.997L1088.06 116.218C1087.18 116.331 1086.74 116.664 1086.74 117.219C1086.74 117.514 1086.87 117.752 1087.11 117.934C1087.35 118.107 1087.68 118.194 1088.08 118.194C1088.64 118.194 1089.08 118.029 1089.41 117.7C1089.75 117.371 1089.92 116.937 1089.92 116.4H1090.37C1090.37 117.189 1090.13 117.843 1089.64 118.363C1089.16 118.883 1088.55 119.143 1087.82 119.143C1087.21 119.143 1086.7 118.97 1086.29 118.623C1085.89 118.268 1085.69 117.813 1085.69 117.258C1085.7 116.729 1085.89 116.292 1086.26 115.945C1086.65 115.598 1087.17 115.386 1087.84 115.308L1089.92 115.074V114.814C1089.92 114.415 1089.76 114.069 1089.45 113.774C1089.15 113.479 1088.77 113.332 1088.33 113.332C1087.93 113.332 1087.58 113.44 1087.26 113.657C1086.96 113.874 1086.77 114.155 1086.69 114.502L1085.7 114.19C1085.88 113.644 1086.2 113.202 1086.67 112.864C1087.14 112.526 1087.68 112.357 1088.28 112.357C1089.01 112.357 1089.64 112.591 1090.16 113.059C1090.69 113.518 1090.96 114.069 1090.96 114.71V119H1089.92V115.997ZM1101.86 119H1092.45V112.5H1093.49V118.012H1096.64V112.5H1097.68V118.012H1100.82V112.5H1101.86V119ZM1112.33 115.256C1112.28 114.649 1112.04 114.16 1111.59 113.787C1111.15 113.414 1110.62 113.228 1109.99 113.228C1109.4 113.228 1108.88 113.414 1108.45 113.787C1108.02 114.151 1107.77 114.641 1107.69 115.256H1112.33ZM1107.69 116.205C1107.77 116.82 1108.03 117.314 1108.47 117.687C1108.92 118.06 1109.44 118.246 1110.05 118.246C1110.51 118.246 1110.94 118.138 1111.32 117.921C1111.7 117.696 1111.99 117.388 1112.18 116.998L1113.14 117.375C1112.85 117.947 1112.43 118.402 1111.88 118.74C1111.33 119.069 1110.73 119.234 1110.06 119.234C1109.09 119.234 1108.27 118.905 1107.6 118.246C1106.94 117.579 1106.61 116.742 1106.61 115.737C1106.61 114.732 1106.94 113.9 1107.59 113.241C1108.24 112.574 1109.04 112.24 1109.98 112.24C1110.93 112.24 1111.74 112.565 1112.4 113.215C1113.06 113.856 1113.39 114.667 1113.39 115.646C1113.39 115.802 1113.37 115.988 1113.32 116.205H1107.69ZM1118.39 115.074V116.01H1114.24V115.074H1118.39ZM1127.59 119V114.931C1127.59 114.437 1127.46 114.051 1127.19 113.774C1126.93 113.497 1126.59 113.358 1126.17 113.358C1125.74 113.358 1125.37 113.514 1125.06 113.826C1124.74 114.129 1124.59 114.498 1124.59 114.931H1124.03C1124.03 114.22 1124.26 113.614 1124.73 113.111C1125.2 112.608 1125.78 112.357 1126.46 112.357C1127.08 112.357 1127.59 112.574 1128.01 113.007C1128.42 113.44 1128.63 114.008 1128.63 114.71V119H1127.59ZM1119.52 119V112.5H1120.56V119H1119.52ZM1123.55 119V114.931C1123.55 114.437 1123.41 114.051 1123.15 113.774C1122.89 113.497 1122.55 113.358 1122.14 113.358C1121.7 113.358 1121.33 113.514 1121.01 113.826C1120.71 114.129 1120.56 114.498 1120.56 114.931H1119.99C1119.99 114.22 1120.22 113.614 1120.69 113.111C1121.16 112.608 1121.74 112.357 1122.43 112.357C1123.05 112.357 1123.56 112.574 1123.96 113.007C1124.38 113.44 1124.59 114.008 1124.59 114.71V119H1123.55ZM1134.08 115.997L1132.22 116.218C1131.35 116.322 1130.91 116.656 1130.91 117.219C1130.91 117.514 1131.03 117.752 1131.28 117.934C1131.52 118.107 1131.84 118.194 1132.25 118.194C1132.81 118.194 1133.25 118.029 1133.58 117.7C1133.91 117.371 1134.08 116.937 1134.08 116.4H1134.54C1134.54 117.189 1134.3 117.843 1133.81 118.363C1133.33 118.883 1132.72 119.143 1131.99 119.143C1131.38 119.143 1130.86 118.97 1130.46 118.623C1130.06 118.268 1129.86 117.813 1129.86 117.258C1129.87 116.721 1130.06 116.283 1130.43 115.945C1130.81 115.598 1131.34 115.386 1132 115.308L1134.08 115.074V114.814C1134.08 114.415 1133.93 114.069 1133.62 113.774C1133.3 113.479 1132.92 113.332 1132.47 113.332C1132.06 113.332 1131.7 113.44 1131.39 113.657C1131.08 113.874 1130.88 114.155 1130.78 114.502L1129.82 114.19C1129.98 113.644 1130.31 113.202 1130.78 112.864C1131.26 112.526 1131.8 112.357 1132.41 112.357C1133.14 112.357 1133.78 112.591 1134.32 113.059C1134.86 113.518 1135.12 114.069 1135.12 114.71V119H1134.08V115.997ZM1136.62 111.239C1136.48 111.1 1136.41 110.931 1136.41 110.732C1136.41 110.533 1136.48 110.368 1136.62 110.238C1136.76 110.099 1136.92 110.03 1137.11 110.03C1137.31 110.03 1137.48 110.099 1137.61 110.238C1137.75 110.368 1137.82 110.533 1137.82 110.732C1137.82 110.931 1137.75 111.1 1137.61 111.239C1137.48 111.369 1137.31 111.434 1137.11 111.434C1136.92 111.434 1136.76 111.369 1136.62 111.239ZM1136.59 119V112.5H1137.63V119H1136.59ZM1139.13 119V109.25H1140.17V119H1139.13ZM1141.36 118.324C1141.36 118.09 1141.44 117.895 1141.59 117.739C1141.75 117.574 1141.95 117.492 1142.19 117.492C1142.43 117.492 1142.62 117.574 1142.78 117.739C1142.94 117.895 1143.02 118.09 1143.02 118.324C1143.02 118.567 1142.95 118.766 1142.79 118.922C1142.63 119.078 1142.43 119.156 1142.19 119.156C1141.96 119.156 1141.76 119.078 1141.59 118.922C1141.44 118.766 1141.36 118.567 1141.36 118.324ZM1143.92 118.324C1143.92 118.09 1144 117.895 1144.16 117.739C1144.31 117.574 1144.51 117.492 1144.76 117.492C1144.99 117.492 1145.19 117.574 1145.34 117.739C1145.51 117.895 1145.59 118.09 1145.59 118.324C1145.59 118.567 1145.51 118.766 1145.35 118.922C1145.2 119.078 1145 119.156 1144.76 119.156C1144.52 119.156 1144.32 119.078 1144.16 118.922C1144 118.766 1143.92 118.567 1143.92 118.324ZM1146.49 118.324C1146.49 118.09 1146.57 117.895 1146.72 117.739C1146.88 117.574 1147.08 117.492 1147.32 117.492C1147.55 117.492 1147.75 117.574 1147.91 117.739C1148.07 117.895 1148.15 118.09 1148.15 118.324C1148.15 118.567 1148.07 118.766 1147.92 118.922C1147.76 119.078 1147.56 119.156 1147.32 119.156C1147.09 119.156 1146.89 119.078 1146.72 118.922C1146.57 118.766 1146.49 118.567 1146.49 118.324Z" fill="#787878"/>
<path d="M200.395 45.432H222.02C222.058 45.432 222.077 45.451 222.077 45.4891V69.9429C222.077 69.981 222.058 70 222.02 70H219.363C219.325 70 219.306 69.981 219.306 69.9429V47.9745H203.108V69.9429C203.108 69.981 203.089 70 203.051 70H200.395C200.356 70 200.337 69.981 200.337 69.9429V45.4891C200.337 45.451 200.356 45.432 200.395 45.432ZM227.659 45.432H239.829C239.867 45.432 239.886 45.451 239.886 45.4891V70.1428C239.886 70.1809 239.867 70.2 239.829 70.2H237.372C237.334 70.2 237.315 70.1809 237.315 70.1428V68.3145C235.639 69.8191 233.791 70.5713 231.773 70.5713H231.487C229.487 70.5713 227.649 69.8286 225.973 68.3431C224.24 66.61 223.374 64.6484 223.374 62.4582V62.1725C223.374 60.1728 224.116 58.335 225.602 56.659C227.335 54.9259 229.297 54.0594 231.487 54.0594H231.773C233.791 54.0594 235.639 54.8116 237.315 56.3162V48.0031H227.659C227.621 48.0031 227.602 47.984 227.602 47.9459V45.4891C227.602 45.451 227.621 45.432 227.659 45.432ZM225.945 62.3154C225.945 63.9913 226.621 65.4387 227.973 66.6576C229.078 67.5527 230.297 68.0003 231.63 68.0003C233.306 68.0003 234.753 67.3242 235.972 65.972C236.867 64.8674 237.315 63.6485 237.315 62.3154C237.315 60.7918 236.734 59.43 235.572 58.2302C234.41 57.1637 233.087 56.6304 231.601 56.6304C229.944 56.6304 228.506 57.3065 227.287 58.6587C226.392 59.7633 225.945 60.9822 225.945 62.3154ZM250.796 45.2035H251.081C253.062 45.2035 254.881 45.9462 256.538 47.4317C258.252 49.1458 259.109 51.0788 259.109 53.2309V53.5166C259.109 55.5163 258.375 57.3351 256.909 58.973C255.195 60.687 253.252 61.544 251.081 61.544H250.796C248.796 61.544 246.967 60.8013 245.311 59.3158V69.9429C245.311 69.981 245.292 70 245.253 70H242.825C242.787 70 242.768 69.981 242.768 69.9429V45.5177C242.768 45.4796 242.787 45.4606 242.825 45.4606H245.253C245.292 45.4796 245.311 45.4987 245.311 45.5177V47.4603C246.967 45.9557 248.796 45.2035 250.796 45.2035ZM245.311 53.3737C245.311 55.0497 245.977 56.4876 247.31 57.6874C248.415 58.5635 249.624 59.0015 250.938 59.0015C252.595 59.0015 254.024 58.335 255.223 57.0018C256.119 55.9162 256.566 54.7069 256.566 53.3737C256.566 51.8501 255.985 50.5075 254.824 49.3457C253.7 48.2983 252.395 47.7745 250.91 47.7745C249.272 47.7745 247.853 48.4411 246.653 49.7742C245.758 50.8598 245.311 52.0596 245.311 53.3737ZM265.46 45.432H277.63C277.668 45.432 277.687 45.451 277.687 45.4891V70.1428C277.687 70.1809 277.668 70.2 277.63 70.2H275.173C275.135 70.2 275.116 70.1809 275.116 70.1428V68.3145C273.44 69.8191 271.593 70.5713 269.574 70.5713H269.288C267.289 70.5713 265.451 69.8286 263.775 68.3431C262.042 66.61 261.175 64.6484 261.175 62.4582V62.1725C261.175 60.1728 261.918 58.335 263.404 56.659C265.137 54.9259 267.098 54.0594 269.288 54.0594H269.574C271.593 54.0594 273.44 54.8116 275.116 56.3162V48.0031H265.46C265.422 48.0031 265.403 47.984 265.403 47.9459V45.4891C265.403 45.451 265.422 45.432 265.46 45.432ZM263.746 62.3154C263.746 63.9913 264.422 65.4387 265.775 66.6576C266.879 67.5527 268.098 68.0003 269.431 68.0003C271.107 68.0003 272.555 67.3242 273.774 65.972C274.669 64.8674 275.116 63.6485 275.116 62.3154C275.116 60.7918 274.535 59.43 273.374 58.2302C272.212 57.1637 270.888 56.6304 269.403 56.6304C267.746 56.6304 266.308 57.3065 265.089 58.6587C264.194 59.7633 263.746 60.9822 263.746 62.3154ZM289.768 45.3463H292.197C292.235 45.3463 292.254 45.3653 292.254 45.4034V67.4575H299.424V45.4891C299.424 45.451 299.443 45.432 299.481 45.432H301.91C301.948 45.432 301.967 45.451 301.967 45.4891V69.9429C301.967 69.981 301.948 70 301.91 70H280.056C280.017 70 279.998 69.981 279.998 69.9429V45.4891C279.998 45.451 280.017 45.432 280.056 45.432H282.484C282.522 45.432 282.541 45.451 282.541 45.4891V67.4575H289.711V45.4034C289.711 45.3653 289.73 45.3463 289.768 45.3463ZM322.263 44.7749H322.492C325.882 44.7749 328.881 46.1271 331.491 48.8315C333.795 51.4788 334.947 54.4212 334.947 57.6589V58.0017C334.947 61.4298 333.671 64.5055 331.119 67.229C328.548 69.6667 325.672 70.8856 322.492 70.8856H322.263C318.911 70.8856 315.95 69.5715 313.379 66.9433C311.931 65.3435 310.941 63.6866 310.408 61.9725C310.046 60.5823 309.865 59.63 309.865 59.1158H307.951V70.0286C307.951 70.0667 307.932 70.0857 307.894 70.0857H305.466C305.427 70.0857 305.408 70.0667 305.408 70.0286V45.5748C305.408 45.5367 305.427 45.5177 305.466 45.5177H307.894C307.932 45.5177 307.951 45.5367 307.951 45.5748V56.5447H309.865C310.094 54.6593 310.493 53.1738 311.065 52.0882C311.446 51.3074 311.931 50.5075 312.522 49.6885C313.817 48.1078 315.15 46.9746 316.521 46.289C318.349 45.2796 320.264 44.7749 322.263 44.7749ZM312.35 57.8588C312.35 60.9822 313.569 63.6866 316.007 65.972C317.95 67.5527 320.073 68.3431 322.378 68.3431C325.558 68.3431 328.234 66.9338 330.405 64.1151C331.738 62.1725 332.405 60.0776 332.405 57.8303C332.405 54.6498 331.176 51.9358 328.719 49.6885C326.815 48.1078 324.701 47.3174 322.378 47.3174C319.349 47.3174 316.778 48.5839 314.664 51.1169C313.122 53.1166 312.35 55.3639 312.35 57.8588ZM336.592 45.432H357.961C357.999 45.432 358.018 45.451 358.018 45.4891V69.9429C358.018 69.981 357.999 70 357.961 70H355.532C355.494 70 355.475 69.981 355.475 69.9429V47.9745H348.562V69.9429C348.562 69.981 348.543 70 348.505 70H346.077C346.039 70 346.02 69.981 346.02 69.9429V47.9745H339.078V69.9429C339.078 69.981 339.059 70 339.021 70H336.592C336.554 70 336.535 69.981 336.535 69.9429V45.4891C336.535 45.451 336.554 45.432 336.592 45.432Z" fill="white"/>
<path d="M197.377 108.512H204.488V111.008H203.448V109.5H198.417V111.008H197.377V108.512ZM197.689 108.512C198.096 108.521 198.408 108.395 198.625 108.135C198.85 107.866 198.963 107.533 198.963 107.134V103H203.578V109.5H202.538V104.014H200.003V107.316C200.003 107.853 199.799 108.321 199.392 108.72C198.985 109.11 198.46 109.305 197.819 109.305H197.442V108.512H197.689ZM205.561 108.486C205.925 108.486 206.206 108.373 206.406 108.148C206.605 107.914 206.705 107.619 206.705 107.264V103H211.32V109.5H210.28V104.014H207.745V107.433C207.745 107.996 207.554 108.482 207.173 108.889C206.791 109.296 206.297 109.5 205.691 109.5H205.288V108.486H205.561ZM214.917 106.172H217.335V104.014H214.917C214.553 104.014 214.245 104.118 213.994 104.326C213.751 104.525 213.63 104.772 213.63 105.067C213.63 105.388 213.751 105.652 213.994 105.86C214.245 106.068 214.553 106.172 214.917 106.172ZM215.671 107.121L213.825 109.5H212.551L214.475 107.056C213.92 107.021 213.461 106.813 213.097 106.432C212.733 106.051 212.551 105.591 212.551 105.054C212.551 104.473 212.763 103.988 213.188 103.598C213.612 103.199 214.141 103 214.774 103H218.375V109.5H217.335V107.121H215.671ZM227.026 103.949H224.413V105.782H227.143C227.438 105.782 227.685 105.704 227.884 105.548C228.083 105.383 228.183 105.18 228.183 104.937C228.183 104.651 228.07 104.417 227.845 104.235C227.628 104.044 227.355 103.949 227.026 103.949ZM227.156 106.653H224.413V108.551H227.156C227.485 108.551 227.758 108.464 227.975 108.291C228.2 108.109 228.313 107.888 228.313 107.628C228.313 107.342 228.2 107.108 227.975 106.926C227.758 106.744 227.485 106.653 227.156 106.653ZM227.286 109.5H223.373V103H227.156C227.745 103 228.235 103.173 228.625 103.52C229.024 103.858 229.223 104.287 229.223 104.807C229.223 105.093 229.145 105.357 228.989 105.6C228.842 105.834 228.634 106.016 228.365 106.146C228.668 106.293 228.907 106.506 229.08 106.783C229.262 107.06 229.353 107.372 229.353 107.719C229.353 108.222 229.154 108.646 228.755 108.993C228.365 109.331 227.875 109.5 227.286 109.5ZM230.207 108.512H237.318V111.008H236.278V109.5H231.247V111.008H230.207V108.512ZM230.519 108.512C230.926 108.521 231.238 108.395 231.455 108.135C231.68 107.866 231.793 107.533 231.793 107.134V103H236.408V109.5H235.368V104.014H232.833V107.316C232.833 107.853 232.629 108.321 232.222 108.72C231.815 109.11 231.29 109.305 230.649 109.305H230.272V108.512H230.519ZM239.925 104.456C239.448 104.915 239.21 105.509 239.21 106.237C239.21 106.965 239.448 107.563 239.925 108.031C240.41 108.49 240.999 108.72 241.693 108.72C242.386 108.72 242.971 108.49 243.448 108.031C243.933 107.563 244.176 106.965 244.176 106.237C244.176 105.509 243.933 104.915 243.448 104.456C242.971 103.988 242.386 103.754 241.693 103.754C240.999 103.754 240.41 103.988 239.925 104.456ZM239.184 108.746C238.508 108.087 238.17 107.251 238.17 106.237C238.17 105.223 238.508 104.387 239.184 103.728C239.868 103.069 240.705 102.74 241.693 102.74C242.681 102.74 243.513 103.069 244.189 103.728C244.873 104.387 245.216 105.223 245.216 106.237C245.216 107.251 244.873 108.087 244.189 108.746C243.513 109.405 242.681 109.734 241.693 109.734C240.705 109.734 239.868 109.405 239.184 108.746ZM252.472 109.5H251.224L249.287 106.926L247.376 109.5H246.102L248.546 106.25L246.102 103H247.376L249.287 105.574L251.224 103H252.472L250.028 106.25L252.472 109.5ZM253.613 109.5V103H254.653V105.743H258.709V103H259.749V109.5H258.709V106.731H254.653V109.5H253.613ZM262.738 104.456C262.262 104.915 262.023 105.509 262.023 106.237C262.023 106.965 262.262 107.563 262.738 108.031C263.224 108.49 263.813 108.72 264.506 108.72C265.2 108.72 265.785 108.49 266.261 108.031C266.747 107.563 266.989 106.965 266.989 106.237C266.989 105.509 266.747 104.915 266.261 104.456C265.785 103.988 265.2 103.754 264.506 103.754C263.813 103.754 263.224 103.988 262.738 104.456ZM261.997 108.746C261.321 108.087 260.983 107.251 260.983 106.237C260.983 105.223 261.321 104.387 261.997 103.728C262.682 103.069 263.518 102.74 264.506 102.74C265.494 102.74 266.326 103.069 267.002 103.728C267.687 104.387 268.029 105.223 268.029 106.237C268.029 107.251 267.687 108.087 267.002 108.746C266.326 109.405 265.494 109.734 264.506 109.734C263.518 109.734 262.682 109.405 261.997 108.746ZM272.932 103.949H270.319V105.782H273.049C273.344 105.782 273.591 105.704 273.79 105.548C273.99 105.383 274.089 105.18 274.089 104.937C274.089 104.651 273.977 104.417 273.751 104.235C273.535 104.044 273.262 103.949 272.932 103.949ZM273.062 106.653H270.319V108.551H273.062C273.392 108.551 273.665 108.464 273.881 108.291C274.107 108.109 274.219 107.888 274.219 107.628C274.219 107.342 274.107 107.108 273.881 106.926C273.665 106.744 273.392 106.653 273.062 106.653ZM273.192 109.5H269.279V103H273.062C273.652 103 274.141 103.173 274.531 103.52C274.93 103.858 275.129 104.287 275.129 104.807C275.129 105.093 275.051 105.357 274.895 105.6C274.748 105.834 274.54 106.016 274.271 106.146C274.575 106.293 274.813 106.506 274.986 106.783C275.168 107.06 275.259 107.372 275.259 107.719C275.259 108.222 275.06 108.646 274.661 108.993C274.271 109.331 273.782 109.5 273.192 109.5ZM281.95 105.756C281.898 105.149 281.651 104.66 281.209 104.287C280.767 103.914 280.234 103.728 279.61 103.728C279.012 103.728 278.497 103.914 278.063 104.287C277.639 104.651 277.387 105.141 277.309 105.756H281.95ZM277.309 106.705C277.387 107.32 277.647 107.814 278.089 108.187C278.531 108.56 279.056 108.746 279.662 108.746C280.13 108.746 280.555 108.638 280.936 108.421C281.318 108.196 281.604 107.888 281.794 107.498L282.756 107.875C282.47 108.447 282.05 108.902 281.495 109.24C280.949 109.569 280.343 109.734 279.675 109.734C278.705 109.734 277.886 109.405 277.218 108.746C276.56 108.079 276.23 107.242 276.23 106.237C276.23 105.232 276.555 104.4 277.205 103.741C277.855 103.074 278.653 102.74 279.597 102.74C280.551 102.74 281.357 103.065 282.015 103.715C282.674 104.356 283.003 105.167 283.003 106.146C283.003 106.302 282.982 106.488 282.938 106.705H277.309ZM284.234 109.5V103H285.274V105.743H289.33V103H290.37V109.5H289.33V106.731H285.274V109.5H284.234ZM297.714 109.5H296.674V104.3L293.099 109.5H291.864V103H292.904V108.07L296.466 103H297.714V109.5ZM301.321 106.172H303.739V104.014H301.321C300.957 104.014 300.649 104.118 300.398 104.326C300.155 104.525 300.034 104.772 300.034 105.067C300.034 105.388 300.155 105.652 300.398 105.86C300.649 106.068 300.957 106.172 301.321 106.172ZM302.075 107.121L300.229 109.5H298.955L300.879 107.056C300.324 107.021 299.865 106.813 299.501 106.432C299.137 106.051 298.955 105.591 298.955 105.054C298.955 104.473 299.167 103.988 299.592 103.598C300.017 103.199 300.545 103 301.178 103H304.779V109.5H303.739V107.121H302.075ZM197.754 127.5V121H198.794V123.743H202.85V121H203.89V127.5H202.85V124.731H198.794V127.5H197.754ZM209.336 124.497L207.477 124.718C206.602 124.831 206.164 125.164 206.164 125.719C206.164 126.014 206.285 126.252 206.528 126.434C206.771 126.607 207.096 126.694 207.503 126.694C208.058 126.694 208.5 126.529 208.829 126.2C209.167 125.871 209.336 125.437 209.336 124.9H209.791C209.791 125.689 209.548 126.343 209.063 126.863C208.578 127.383 207.971 127.643 207.243 127.643C206.628 127.643 206.116 127.47 205.709 127.123C205.31 126.768 205.111 126.313 205.111 125.758C205.12 125.229 205.31 124.792 205.683 124.445C206.064 124.098 206.589 123.886 207.256 123.808L209.336 123.574V123.314C209.336 122.915 209.18 122.569 208.868 122.274C208.565 121.979 208.192 121.832 207.75 121.832C207.351 121.832 206.996 121.94 206.684 122.157C206.381 122.374 206.19 122.655 206.112 123.002L205.124 122.69C205.297 122.144 205.618 121.702 206.086 121.364C206.563 121.026 207.1 120.857 207.698 120.857C208.426 120.857 209.054 121.091 209.583 121.559C210.112 122.018 210.376 122.569 210.376 123.21V127.5H209.336V124.497ZM216.857 122.456C216.389 122.915 216.155 123.509 216.155 124.237C216.155 124.965 216.389 125.563 216.857 126.031C217.325 126.49 217.897 126.72 218.573 126.72C219.058 126.72 219.496 126.603 219.886 126.369C220.276 126.135 220.575 125.806 220.783 125.381L221.732 125.81C221.446 126.399 221.021 126.867 220.458 127.214C219.895 127.561 219.266 127.734 218.573 127.734C217.602 127.734 216.783 127.405 216.116 126.746C215.449 126.087 215.115 125.251 215.115 124.237C215.115 123.223 215.449 122.387 216.116 121.728C216.783 121.069 217.602 120.74 218.573 120.74C219.275 120.74 219.912 120.918 220.484 121.273C221.056 121.628 221.481 122.114 221.758 122.729L220.809 123.158C220.61 122.716 220.311 122.374 219.912 122.131C219.513 121.88 219.067 121.754 218.573 121.754C217.897 121.754 217.325 121.988 216.857 122.456ZM226.944 124.497L225.085 124.718C224.21 124.831 223.772 125.164 223.772 125.719C223.772 126.014 223.894 126.252 224.136 126.434C224.379 126.607 224.704 126.694 225.111 126.694C225.666 126.694 226.108 126.529 226.437 126.2C226.775 125.871 226.944 125.437 226.944 124.9H227.399C227.399 125.689 227.157 126.343 226.671 126.863C226.186 127.383 225.579 127.643 224.851 127.643C224.236 127.643 223.725 127.47 223.317 127.123C222.919 126.768 222.719 126.313 222.719 125.758C222.728 125.229 222.919 124.792 223.291 124.445C223.673 124.098 224.197 123.886 224.864 123.808L226.944 123.574V123.314C226.944 122.915 226.788 122.569 226.476 122.274C226.173 121.979 225.8 121.832 225.358 121.832C224.96 121.832 224.604 121.94 224.292 122.157C223.989 122.374 223.798 122.655 223.72 123.002L222.732 122.69C222.906 122.144 223.226 121.702 223.694 121.364C224.171 121.026 224.708 120.857 225.306 120.857C226.034 120.857 226.663 121.091 227.191 121.559C227.72 122.018 227.984 122.569 227.984 123.21V127.5H226.944V124.497ZM229.48 127.5V121H230.702L233.25 125.29L235.798 121H237.02V127.5H235.98V122.508L233.614 126.538H232.899L230.52 122.508V127.5H229.48ZM245.486 127.5V121H246.526V127.5H245.486ZM242.223 124.588H239.532V126.486H242.223C242.553 126.486 242.826 126.399 243.042 126.226C243.259 126.044 243.367 125.823 243.367 125.563C243.367 125.286 243.259 125.056 243.042 124.874C242.826 124.683 242.553 124.588 242.223 124.588ZM242.353 123.6C242.934 123.6 243.419 123.791 243.809 124.172C244.208 124.553 244.407 125.021 244.407 125.576C244.407 126.122 244.208 126.581 243.809 126.954C243.419 127.318 242.934 127.5 242.353 127.5H238.492V121H239.532V123.6H242.353ZM253.487 123.756C253.435 123.149 253.188 122.66 252.746 122.287C252.304 121.914 251.771 121.728 251.147 121.728C250.549 121.728 250.034 121.914 249.6 122.287C249.176 122.651 248.924 123.141 248.846 123.756H253.487ZM248.846 124.705C248.924 125.32 249.184 125.814 249.626 126.187C250.068 126.56 250.593 126.746 251.199 126.746C251.667 126.746 252.092 126.638 252.473 126.421C252.855 126.196 253.141 125.888 253.331 125.498L254.293 125.875C254.007 126.447 253.587 126.902 253.032 127.24C252.486 127.569 251.88 127.734 251.212 127.734C250.242 127.734 249.423 127.405 248.755 126.746C248.097 126.079 247.767 125.242 247.767 124.237C247.767 123.232 248.092 122.4 248.742 121.741C249.392 121.074 250.19 120.74 251.134 120.74C252.088 120.74 252.894 121.065 253.552 121.715C254.211 122.356 254.54 123.167 254.54 124.146C254.54 124.302 254.519 124.488 254.475 124.705H248.846ZM260.757 122.456C260.289 122.915 260.055 123.509 260.055 124.237C260.055 124.965 260.289 125.563 260.757 126.031C261.225 126.49 261.797 126.72 262.473 126.72C262.959 126.72 263.396 126.603 263.786 126.369C264.176 126.135 264.475 125.806 264.683 125.381L265.632 125.81C265.346 126.399 264.922 126.867 264.358 127.214C263.795 127.561 263.167 127.734 262.473 127.734C261.503 127.734 260.684 127.405 260.016 126.746C259.349 126.087 259.015 125.251 259.015 124.237C259.015 123.223 259.349 122.387 260.016 121.728C260.684 121.069 261.503 120.74 262.473 120.74C263.175 120.74 263.812 120.918 264.384 121.273C264.956 121.628 265.381 122.114 265.658 122.729L264.709 123.158C264.51 122.716 264.211 122.374 263.812 122.131C263.414 121.88 262.967 121.754 262.473 121.754C261.797 121.754 261.225 121.988 260.757 122.456ZM266.893 127.5V121H268.115L270.663 125.29L273.211 121H274.433V127.5H273.393V122.508L271.027 126.538H270.312L267.933 122.508V127.5H266.893ZM281.404 123.756C281.352 123.149 281.105 122.66 280.663 122.287C280.221 121.914 279.688 121.728 279.064 121.728C278.466 121.728 277.951 121.914 277.517 122.287C277.093 122.651 276.841 123.141 276.763 123.756H281.404ZM276.763 124.705C276.841 125.32 277.101 125.814 277.543 126.187C277.985 126.56 278.51 126.746 279.116 126.746C279.584 126.746 280.009 126.638 280.39 126.421C280.772 126.196 281.058 125.888 281.248 125.498L282.21 125.875C281.924 126.447 281.504 126.902 280.949 127.24C280.403 127.569 279.797 127.734 279.129 127.734C278.159 127.734 277.34 127.405 276.672 126.746C276.014 126.079 275.684 125.242 275.684 124.237C275.684 123.232 276.009 122.4 276.659 121.741C277.309 121.074 278.107 120.74 279.051 120.74C280.005 120.74 280.811 121.065 281.469 121.715C282.128 122.356 282.457 123.167 282.457 124.146C282.457 124.302 282.436 124.488 282.392 124.705H276.763ZM283.65 126.486C284.014 126.486 284.295 126.373 284.495 126.148C284.694 125.914 284.794 125.619 284.794 125.264V121H289.409V127.5H288.369V122.014H285.834V125.433C285.834 125.996 285.643 126.482 285.262 126.889C284.88 127.296 284.386 127.5 283.78 127.5H283.377V126.486H283.65ZM297.855 127.5V121H298.895V127.5H297.855ZM294.592 124.588H291.901V126.486H294.592C294.921 126.486 295.194 126.399 295.411 126.226C295.627 126.044 295.736 125.823 295.736 125.563C295.736 125.286 295.627 125.056 295.411 124.874C295.194 124.683 294.921 124.588 294.592 124.588ZM294.722 123.6C295.302 123.6 295.788 123.791 296.178 124.172C296.576 124.553 296.776 125.021 296.776 125.576C296.776 126.122 296.576 126.581 296.178 126.954C295.788 127.318 295.302 127.5 294.722 127.5H290.861V121H291.901V123.6H294.722ZM305.856 123.756C305.804 123.149 305.557 122.66 305.115 122.287C304.673 121.914 304.14 121.728 303.516 121.728C302.918 121.728 302.402 121.914 301.969 122.287C301.544 122.651 301.293 123.141 301.215 123.756H305.856ZM301.215 124.705C301.293 125.32 301.553 125.814 301.995 126.187C302.437 126.56 302.961 126.746 303.568 126.746C304.036 126.746 304.46 126.638 304.842 126.421C305.223 126.196 305.509 125.888 305.7 125.498L306.662 125.875C306.376 126.447 305.955 126.902 305.401 127.24C304.855 127.569 304.248 127.734 303.581 127.734C302.61 127.734 301.791 127.405 301.124 126.746C300.465 126.079 300.136 125.242 300.136 124.237C300.136 123.232 300.461 122.4 301.111 121.741C301.761 121.074 302.558 120.74 303.503 120.74C304.456 120.74 305.262 121.065 305.921 121.715C306.579 122.356 306.909 123.167 306.909 124.146C306.909 124.302 306.887 124.488 306.844 124.705H301.215ZM317.494 127.5H316.454V122.3L312.879 127.5H311.644V121H312.684V126.07L316.246 121H317.494V127.5ZM318.617 126.512H325.728V129.008H324.688V127.5H319.657V129.008H318.617V126.512ZM318.929 126.512C319.337 126.521 319.649 126.395 319.865 126.135C320.091 125.866 320.203 125.533 320.203 125.134V121H324.818V127.5H323.778V122.014H321.243V125.316C321.243 125.853 321.04 126.321 320.632 126.72C320.225 127.11 319.701 127.305 319.059 127.305H318.682V126.512H318.929ZM332.3 123.756C332.248 123.149 332.001 122.66 331.559 122.287C331.117 121.914 330.584 121.728 329.96 121.728C329.362 121.728 328.846 121.914 328.413 122.287C327.988 122.651 327.737 123.141 327.659 123.756H332.3ZM327.659 124.705C327.737 125.32 327.997 125.814 328.439 126.187C328.881 126.56 329.405 126.746 330.012 126.746C330.48 126.746 330.905 126.638 331.286 126.421C331.667 126.196 331.953 125.888 332.144 125.498L333.106 125.875C332.82 126.447 332.4 126.902 331.845 127.24C331.299 127.569 330.692 127.734 330.025 127.734C329.054 127.734 328.235 127.405 327.568 126.746C326.909 126.079 326.58 125.242 326.58 124.237C326.58 123.232 326.905 122.4 327.555 121.741C328.205 121.074 329.002 120.74 329.947 120.74C330.9 120.74 331.706 121.065 332.365 121.715C333.024 122.356 333.353 123.167 333.353 124.146C333.353 124.302 333.331 124.488 333.288 124.705H327.659ZM340.434 127.5H339.394V122.3L335.819 127.5H334.584V121H335.624V126.07L339.186 121H340.434V127.5ZM341.623 126.824C341.623 126.59 341.701 126.395 341.857 126.239C342.013 126.074 342.212 125.992 342.455 125.992C342.689 125.992 342.884 126.074 343.04 126.239C343.204 126.395 343.287 126.59 343.287 126.824C343.287 127.067 343.209 127.266 343.053 127.422C342.897 127.578 342.697 127.656 342.455 127.656C342.221 127.656 342.021 127.578 341.857 127.422C341.701 127.266 341.623 127.067 341.623 126.824Z" fill="white"/>
<defs>
<clipPath id="clip0_514_14592">
<rect width="23.9068" height="23.9068" fill="white" transform="translate(1032.93 44)"/>
</clipPath>
<clipPath id="clip1_514_14592">
<rect width="23.1356" height="23.9068" fill="white" transform="translate(1033.31 74.8477)"/>
</clipPath>
<clipPath id="clip2_514_14592">
<rect width="27.7627" height="26.9915" fill="white" transform="translate(1031 105.695)"/>
</clipPath>
</defs>
</svg>
