<svg width="183" height="75" viewBox="0 0 183 75" fill="none" xmlns="http://www.w3.org/2000/svg">
<path d="M145.5 0C148.174 11.8363 161.756 17.4625 172.017 10.9835C165.538 21.2436 171.164 34.8264 183 37.5C171.164 40.1736 165.538 53.7564 172.017 64.0165C161.756 57.5375 148.174 63.1637 145.5 75C142.826 63.1637 129.244 57.5375 118.983 64.0165C125.462 53.7564 119.836 40.1736 108 37.5C119.836 34.8264 125.462 21.2436 118.983 10.9835C129.244 17.4625 142.826 11.8363 145.5 0Z" fill="#B10000"/>
<path d="M1.21783 26.232H22.5948C22.6325 26.232 22.6513 26.2508 22.6513 26.2884V50.4611C22.6513 50.4988 22.6325 50.5176 22.5948 50.5176H19.9686C19.9309 50.5176 19.9121 50.4988 19.9121 50.4611V28.7452H3.90054V50.4611C3.90054 50.4988 3.88172 50.5176 3.84407 50.5176H1.21783C1.18018 50.5176 1.16135 50.4988 1.16135 50.4611V26.2884C1.16135 26.2508 1.18018 26.232 1.21783 26.232ZM28.1687 26.232H40.1986C40.2362 26.232 40.2551 26.2508 40.2551 26.2884V50.6588C40.2551 50.6964 40.2362 50.7153 40.1986 50.7153H37.77C37.7324 50.7153 37.7135 50.6964 37.7135 50.6588V48.8515C36.0568 50.3387 34.2307 51.0824 32.2352 51.0824H31.9528C29.976 51.0824 28.1593 50.3481 26.5026 48.8797C24.7895 47.1665 23.9329 45.2275 23.9329 43.0625V42.7801C23.9329 40.8033 24.6671 38.9866 26.1355 37.3299C27.8487 35.6168 29.7878 34.7602 31.9528 34.7602H32.2352C34.2307 34.7602 36.0568 35.5038 37.7135 36.9911V28.7735H28.1687C28.1311 28.7735 28.1123 28.7547 28.1123 28.717V26.2884C28.1123 26.2508 28.1311 26.232 28.1687 26.232ZM26.4744 42.9213C26.4744 44.578 27.1427 46.0087 28.4794 47.2136C29.5713 48.0984 30.7761 48.5408 32.094 48.5408C33.7507 48.5408 35.1814 47.8725 36.3863 46.5359C37.2711 45.444 37.7135 44.2391 37.7135 42.9213C37.7135 41.4152 37.1393 40.0691 35.991 38.8831C34.8426 37.8288 33.5342 37.3017 32.0657 37.3017C30.4279 37.3017 29.0065 37.97 27.8016 39.3067C26.9168 40.3986 26.4744 41.6034 26.4744 42.9213ZM51.0395 26.0061H51.3219C53.2798 26.0061 55.0777 26.7403 56.7156 28.2087C58.4099 29.903 59.2571 31.8139 59.2571 33.9412V34.2236C59.2571 36.2004 58.5323 37.9982 57.0827 39.6173C55.3883 41.3116 53.4681 42.1588 51.3219 42.1588H51.0395C49.0628 42.1588 47.2555 41.4246 45.6176 39.9562V50.4611C45.6176 50.4988 45.5988 50.5176 45.5611 50.5176H43.1608C43.1232 50.5176 43.1043 50.4988 43.1043 50.4611V26.3167C43.1043 26.279 43.1232 26.2602 43.1608 26.2602H45.5611C45.5988 26.279 45.6176 26.2979 45.6176 26.3167V28.2369C47.2555 26.7497 49.0628 26.0061 51.0395 26.0061ZM45.6176 34.0824C45.6176 35.7391 46.2765 37.1605 47.5944 38.3465C48.6863 39.2125 49.8817 39.6455 51.1807 39.6455C52.8186 39.6455 54.2305 38.9866 55.4166 37.6688C56.3014 36.5957 56.7438 35.4003 56.7438 34.0824C56.7438 32.5763 56.1696 31.2491 55.0212 30.1007C53.9105 29.0653 52.6209 28.5476 51.1525 28.5476C49.5334 28.5476 48.1309 29.2065 46.9449 30.5243C46.06 31.5974 45.6176 32.7834 45.6176 34.0824ZM65.5359 26.232H77.5657C77.6034 26.232 77.6222 26.2508 77.6222 26.2884V50.6588C77.6222 50.6964 77.6034 50.7153 77.5657 50.7153H75.1372C75.0995 50.7153 75.0807 50.6964 75.0807 50.6588V48.8515C73.424 50.3387 71.5979 51.0824 69.6023 51.0824H69.3199C67.3432 51.0824 65.5265 50.3481 63.8698 48.8797C62.1566 47.1665 61.3 45.2275 61.3 43.0625V42.7801C61.3 40.8033 62.0342 38.9866 63.5027 37.3299C65.2158 35.6168 67.1549 34.7602 69.3199 34.7602H69.6023C71.5979 34.7602 73.424 35.5038 75.0807 36.9911V28.7735H65.5359C65.4982 28.7735 65.4794 28.7547 65.4794 28.717V26.2884C65.4794 26.2508 65.4982 26.232 65.5359 26.232ZM63.8415 42.9213C63.8415 44.578 64.5099 46.0087 65.8465 47.2136C66.9384 48.0984 68.1433 48.5408 69.4611 48.5408C71.1178 48.5408 72.5486 47.8725 73.7535 46.5359C74.6383 45.444 75.0807 44.2391 75.0807 42.9213C75.0807 41.4152 74.5065 40.0691 73.3581 38.8831C72.2097 37.8288 70.9013 37.3017 69.4329 37.3017C67.795 37.3017 66.3736 37.97 65.1688 39.3067C64.2839 40.3986 63.8415 41.6034 63.8415 42.9213ZM89.5645 26.1472H91.9648C92.0024 26.1472 92.0213 26.1661 92.0213 26.2037V48.0043H99.1093V26.2884C99.1093 26.2508 99.1281 26.232 99.1658 26.232H101.566C101.604 26.232 101.623 26.2508 101.623 26.2884V50.4611C101.623 50.4988 101.604 50.5176 101.566 50.5176H79.9632C79.9255 50.5176 79.9067 50.4988 79.9067 50.4611V26.2884C79.9067 26.2508 79.9255 26.232 79.9632 26.232H82.3635C82.4012 26.232 82.42 26.2508 82.42 26.2884V48.0043H89.508V26.2037C89.508 26.1661 89.5268 26.1472 89.5645 26.1472ZM121.686 25.5825H121.912C125.263 25.5825 128.228 26.9191 130.807 29.5924C133.085 32.2092 134.224 35.1179 134.224 38.3183V38.6572C134.224 42.0459 132.963 45.0863 130.44 47.7784C127.898 50.1881 125.056 51.393 121.912 51.393H121.686C118.372 51.393 115.445 50.094 112.903 47.496C111.473 45.9146 110.494 44.2767 109.967 42.5824C109.609 41.2081 109.43 40.2668 109.43 39.7585H107.538V50.5458C107.538 50.5835 107.519 50.6023 107.482 50.6023H105.081C105.044 50.6023 105.025 50.5835 105.025 50.5458V26.3732C105.025 26.3355 105.044 26.3167 105.081 26.3167H107.482C107.519 26.3167 107.538 26.3355 107.538 26.3732V37.217H109.43C109.656 35.3532 110.051 33.8848 110.616 32.8117C110.993 32.0398 111.473 31.2491 112.056 30.4396C113.336 28.877 114.654 27.7569 116.01 27.0791C117.817 26.0814 119.709 25.5825 121.686 25.5825ZM111.887 38.516C111.887 41.6034 113.092 44.2767 115.501 46.5359C117.422 48.0984 119.521 48.8797 121.799 48.8797C124.943 48.8797 127.588 47.4866 129.734 44.7003C131.052 42.7801 131.711 40.7092 131.711 38.4877C131.711 35.3438 130.496 32.6611 128.068 30.4396C126.185 28.877 124.096 28.0957 121.799 28.0957C118.805 28.0957 116.264 29.3477 114.174 31.8515C112.649 33.8283 111.887 36.0498 111.887 38.516ZM135.85 26.232H156.973C157.011 26.232 157.029 26.2508 157.029 26.2884V50.4611C157.029 50.4988 157.011 50.5176 156.973 50.5176H154.573C154.535 50.5176 154.516 50.4988 154.516 50.4611V28.7452H147.682V50.4611C147.682 50.4988 147.663 50.5176 147.626 50.5176H145.225C145.188 50.5176 145.169 50.4988 145.169 50.4611V28.7452H138.307V50.4611C138.307 50.4988 138.288 50.5176 138.25 50.5176H135.85C135.812 50.5176 135.794 50.4988 135.794 50.4611V26.2884C135.794 26.2508 135.812 26.232 135.85 26.232Z" fill="#141414"/>
</svg>
