<svg width="159" height="74" viewBox="0 0 159 74" fill="none" xmlns="http://www.w3.org/2000/svg">
<path d="M49.3468 0.241211L49.354 37.0034L63.5326 3.04231L49.3674 37.009L75.5584 11.0192L49.3776 37.0191L83.594 22.9574L49.3833 37.0325L86.4158 37.0396L49.3833 37.0467L83.594 51.1218L49.3776 37.0601L75.5584 63.0599L49.3674 37.0702L63.5326 71.0369L49.354 37.0758L49.3468 73.838L49.3396 37.0758L35.161 71.0369L49.3262 37.0702L23.1351 63.0599L49.316 37.0601L15.0995 51.1218L49.3103 37.0467L12.2778 37.0396L49.3103 37.0325L15.0995 22.9574L49.316 37.0191L23.1351 11.0192L49.3262 37.009L35.161 3.04231L49.3396 37.0034L49.3468 0.241211Z" stroke="#DFA532" stroke-width="3.31573"/>
<path d="M1.21537 29.232H22.5924C22.63 29.232 22.6488 29.2508 22.6488 29.2884V53.4611C22.6488 53.4988 22.63 53.5176 22.5924 53.5176H19.9661C19.9285 53.5176 19.9097 53.4988 19.9097 53.4611V31.7452H3.89809V53.4611C3.89809 53.4988 3.87926 53.5176 3.84161 53.5176H1.21537C1.17772 53.5176 1.1589 53.4988 1.1589 53.4611V29.2884C1.1589 29.2508 1.17772 29.232 1.21537 29.232ZM28.1663 29.232H40.1961C40.2338 29.232 40.2526 29.2508 40.2526 29.2884V53.6588C40.2526 53.6964 40.2338 53.7153 40.1961 53.7153H37.7676C37.7299 53.7153 37.7111 53.6964 37.7111 53.6588V51.8515C36.0544 53.3387 34.2283 54.0824 32.2327 54.0824H31.9503C29.9736 54.0824 28.1569 53.3481 26.5002 51.8797C24.787 50.1665 23.9304 48.2275 23.9304 46.0625V45.7801C23.9304 43.8033 24.6646 41.9866 26.1331 40.3299C27.8462 38.6168 29.7853 37.7602 31.9503 37.7602H32.2327C34.2283 37.7602 36.0544 38.5038 37.7111 39.9911V31.7735H28.1663C28.1286 31.7735 28.1098 31.7547 28.1098 31.717V29.2884C28.1098 29.2508 28.1286 29.232 28.1663 29.232ZM26.4719 45.9213C26.4719 47.578 27.1403 49.0087 28.4769 50.2136C29.5688 51.0984 30.7737 51.5408 32.0915 51.5408C33.7482 51.5408 35.179 50.8725 36.3839 49.5359C37.2687 48.444 37.7111 47.2391 37.7111 45.9213C37.7111 44.4152 37.1369 43.0691 35.9885 41.8831C34.8401 40.8288 33.5317 40.3017 32.0633 40.3017C30.4254 40.3017 29.004 40.97 27.7992 42.3067C26.9143 43.3986 26.4719 44.6034 26.4719 45.9213ZM51.0371 29.006H51.3195C53.2774 29.006 55.0753 29.7403 56.7131 31.2087C58.4075 32.903 59.2546 34.8139 59.2546 36.9412V37.2236C59.2546 39.2004 58.5298 40.9982 57.0802 42.6173C55.3859 44.3116 53.4656 45.1588 51.3195 45.1588H51.0371C49.0603 45.1588 47.253 44.4246 45.6152 42.9562V53.4611C45.6152 53.4988 45.5963 53.5176 45.5587 53.5176H43.1584C43.1207 53.5176 43.1019 53.4988 43.1019 53.4611V29.3167C43.1019 29.279 43.1207 29.2602 43.1584 29.2602H45.5587C45.5963 29.279 45.6152 29.2979 45.6152 29.3167V31.2369C47.253 29.7497 49.0603 29.006 51.0371 29.006ZM45.6152 37.0824C45.6152 38.7391 46.2741 40.1605 47.5919 41.3465C48.6838 42.2125 49.8793 42.6455 51.1783 42.6455C52.8161 42.6455 54.2281 41.9866 55.4141 40.6688C56.299 39.5957 56.7414 38.4003 56.7414 37.0824C56.7414 35.5763 56.1672 34.2491 55.0188 33.1007C53.908 32.0653 52.6185 31.5476 51.15 31.5476C49.531 31.5476 48.1284 32.2065 46.9424 33.5243C46.0576 34.5974 45.6152 35.7834 45.6152 37.0824ZM65.5334 29.232H77.5633C77.6009 29.232 77.6198 29.2508 77.6198 29.2884V53.6588C77.6198 53.6964 77.6009 53.7153 77.5633 53.7153H75.1347C75.0971 53.7153 75.0782 53.6964 75.0782 53.6588V51.8515C73.4216 53.3387 71.5954 54.0824 69.5999 54.0824H69.3175C67.3407 54.0824 65.524 53.3481 63.8673 51.8797C62.1542 50.1665 61.2976 48.2275 61.2976 46.0625V45.7801C61.2976 43.8033 62.0318 41.9866 63.5002 40.3299C65.2134 38.6168 67.1525 37.7602 69.3175 37.7602H69.5999C71.5954 37.7602 73.4216 38.5038 75.0782 39.9911V31.7735H65.5334C65.4958 31.7735 65.477 31.7547 65.477 31.717V29.2884C65.477 29.2508 65.4958 29.232 65.5334 29.232ZM63.8391 45.9213C63.8391 47.578 64.5074 49.0087 65.8441 50.2136C66.936 51.0984 68.1408 51.5408 69.4587 51.5408C71.1154 51.5408 72.5461 50.8725 73.751 49.5359C74.6358 48.444 75.0782 47.2391 75.0782 45.9213C75.0782 44.4152 74.504 43.0691 73.3557 41.8831C72.2073 40.8288 70.8989 40.3017 69.4304 40.3017C67.7926 40.3017 66.3712 40.97 65.1663 42.3067C64.2815 43.3986 63.8391 44.6034 63.8391 45.9213ZM89.562 29.1472H91.9623C92 29.1472 92.0188 29.1661 92.0188 29.2037V51.0043H99.1068V29.2884C99.1068 29.2508 99.1257 29.232 99.1633 29.232H101.564C101.601 29.232 101.62 29.2508 101.62 29.2884V53.4611C101.62 53.4988 101.601 53.5176 101.564 53.5176H79.9607C79.9231 53.5176 79.9043 53.4988 79.9043 53.4611V29.2884C79.9043 29.2508 79.9231 29.232 79.9607 29.232H82.3611C82.3987 29.232 82.4175 29.2508 82.4175 29.2884V51.0043H89.5055V29.2037C89.5055 29.1661 89.5244 29.1472 89.562 29.1472ZM121.683 28.5825H121.909C125.26 28.5825 128.225 29.9191 130.805 32.5924C133.083 35.2092 134.221 38.1179 134.221 41.3183V41.6572C134.221 45.0459 132.96 48.0863 130.437 50.7784C127.896 53.1881 125.053 54.393 121.909 54.393H121.683C118.37 54.393 115.442 53.094 112.901 50.496C111.47 48.9146 110.491 47.2767 109.964 45.5824C109.606 44.2081 109.428 43.2668 109.428 42.7585H107.536V53.5458C107.536 53.5835 107.517 53.6023 107.479 53.6023H105.079C105.041 53.6023 105.022 53.5835 105.022 53.5458V29.3732C105.022 29.3355 105.041 29.3167 105.079 29.3167H107.479C107.517 29.3167 107.536 29.3355 107.536 29.3732V40.217H109.428C109.653 38.3532 110.049 36.8848 110.614 35.8117C110.99 35.0398 111.47 34.2491 112.054 33.4396C113.334 31.877 114.652 30.7569 116.007 30.0791C117.815 29.0814 119.707 28.5825 121.683 28.5825ZM111.884 41.516C111.884 44.6034 113.089 47.2767 115.499 49.5359C117.419 51.0984 119.518 51.8797 121.796 51.8797C124.94 51.8797 127.585 50.4866 129.731 47.7003C131.049 45.7801 131.708 43.7092 131.708 41.4877C131.708 38.3438 130.494 35.6611 128.065 33.4396C126.183 31.877 124.093 31.0957 121.796 31.0957C118.803 31.0957 116.261 32.3477 114.172 34.8515C112.647 36.8283 111.884 39.0497 111.884 41.516ZM135.848 29.232H156.97C157.008 29.232 157.027 29.2508 157.027 29.2884V53.4611C157.027 53.4988 157.008 53.5176 156.97 53.5176H154.57C154.533 53.5176 154.514 53.4988 154.514 53.4611V31.7452H147.68V53.4611C147.68 53.4988 147.661 53.5176 147.623 53.5176H145.223C145.185 53.5176 145.167 53.4988 145.167 53.4611V31.7452H138.304V53.4611C138.304 53.4988 138.286 53.5176 138.248 53.5176H135.848C135.81 53.5176 135.791 53.4988 135.791 53.4611V29.2884C135.791 29.2508 135.81 29.232 135.848 29.232Z" fill="#141414"/>
</svg>
